<svg id="图层_1" data-name="图层 1" xmlns="http://www.w3.org/2000/svg" xmlns:xlink="http://www.w3.org/1999/xlink" viewBox="0 0 845 317"><defs><style>.cls-1{fill:url(#未命名的渐变_3);}.cls-2,.cls-42,.cls-7,.cls-8,.cls-9{fill:none;}.cls-3{font-size:18px;}.cls-11,.cls-3{font-family:AdobeSongStd-Light-GBpc-EUC-H, Adobe Song Std;}.cls-4{fill:url(#新建渐变色板_1);}.cls-5{fill:url(#新建渐变色板_1-2);}.cls-6{fill:#dff1f5;}.cls-7,.cls-8,.cls-9{stroke:#999;stroke-width:2px;}.cls-10,.cls-42,.cls-7,.cls-8,.cls-9{stroke-miterlimit:10;}.cls-8{stroke-dasharray:11.78 11.78;}.cls-9{stroke-dasharray:12.47 12.47;}.cls-10{fill:#f3f4bd;stroke:#ccc;stroke-dasharray:12;}.cls-11{font-size:21px;}.cls-12{fill:url(#未命名的渐变_94);}.cls-13{fill:url(#未命名的渐变_94-2);}.cls-14{fill:url(#未命名的渐变_94-3);}.cls-15{fill:url(#未命名的渐变_94-4);}.cls-16{fill:url(#未命名的渐变_94-5);}.cls-17{fill:url(#未命名的渐变_94-6);}.cls-18{fill:url(#未命名的渐变_94-7);}.cls-19{fill:url(#未命名的渐变_109);}.cls-20{fill:url(#未命名的渐变_109-2);}.cls-21{fill:url(#未命名的渐变_109-3);}.cls-22{fill:url(#未命名的渐变_109-4);}.cls-23{fill:url(#未命名的渐变_109-5);}.cls-24{fill:url(#未命名的渐变_109-6);}.cls-25{fill:url(#未命名的渐变_109-7);}.cls-26{fill:url(#未命名的渐变_109-8);}.cls-27{fill:url(#未命名的渐变_109-9);}.cls-28{fill:url(#未命名的渐变_109-10);}.cls-29{fill:url(#未命名的渐变_109-11);}.cls-30{fill:url(#未命名的渐变_109-12);}.cls-31{fill:url(#未命名的渐变_109-13);}.cls-32{fill:url(#未命名的渐变_109-14);}.cls-33{fill:url(#未命名的渐变_109-15);}.cls-34{fill:url(#未命名的渐变_109-16);}.cls-35{fill:url(#未命名的渐变_109-17);}.cls-36{fill:url(#未命名的渐变_109-18);}.cls-37{fill:url(#未命名的渐变_123);}.cls-38{fill:url(#未命名的渐变_133);}.cls-39{fill:url(#未命名的渐变_143);}.cls-40{fill:url(#未命名的渐变_148);}.cls-41{fill:url(#未命名的渐变_155);}.cls-42{stroke:#000;stroke-width:0.25px;}.cls-43{fill:url(#未命名的渐变_109-19);}.cls-44{fill:url(#未命名的渐变_109-20);}.cls-45{fill:url(#未命名的渐变_109-21);}.cls-46{fill:#6392c1;}.cls-47{clip-path:url(#clip-path);}.cls-48{clip-path:url(#clip-path-2);}.cls-49{clip-path:url(#clip-path-3);}.cls-50{clip-path:url(#clip-path-4);}.cls-51{clip-path:url(#clip-path-5);}.cls-52{clip-path:url(#clip-path-6);}.cls-53{clip-path:url(#clip-path-7);}.cls-54{clip-path:url(#clip-path-8);}.cls-55{clip-path:url(#clip-path-9);}.cls-56{fill:url(#未命名的渐变_93);}.cls-57{fill:url(#未命名的渐变_93-2);}.cls-58{fill:url(#新建渐变色板_1-3);}.cls-59{fill:url(#新建渐变色板_1-4);}.cls-60{fill:url(#新建渐变色板_1-5);}.cls-61{fill:url(#新建渐变色板_1-6);}.cls-62{clip-path:url(#clip-path-10);}.cls-63{clip-path:url(#clip-path-12);}.cls-64{fill:url(#未命名的渐变_5);}.cls-65{clip-path:url(#clip-path-14);}.cls-66{clip-path:url(#clip-path-16);}.cls-67{mask:url(#mask);}.cls-68{fill:url(#未命名的渐变_2);}.cls-69{clip-path:url(#clip-path-17);}.cls-70{clip-path:url(#clip-path-19);}.cls-71{fill:url(#未命名的渐变_4);}</style><linearGradient id="未命名的渐变_3" x1="-388.8" y1="-60.99" x2="-387.87" y2="-60.99" gradientTransform="matrix(55.9, 0, 0, -55.9, 22398.79, -3265.66)" gradientUnits="userSpaceOnUse"><stop offset="0" stop-color="#e6e6e6"/><stop offset="0.65" stop-color="#fff"/><stop offset="1" stop-color="#fff"/></linearGradient><linearGradient id="新建渐变色板_1" x1="153.78" y1="261.62" x2="202.49" y2="261.62" gradientUnits="userSpaceOnUse"><stop offset="0" stop-color="#cce0f4"/><stop offset="0" stop-color="#c3d7ef"/><stop offset="0" stop-color="#a9bee1"/><stop offset="0.01" stop-color="#8097cb"/><stop offset="0.01" stop-color="#627abb"/><stop offset="1" stop-color="#335ba9"/></linearGradient><linearGradient id="新建渐变色板_1-2" x1="160.69" y1="267.67" x2="195.91" y2="267.67" xlink:href="#新建渐变色板_1"/><linearGradient id="未命名的渐变_94" x1="301.76" y1="81.08" x2="320.27" y2="81.08" gradientUnits="userSpaceOnUse"><stop offset="0" stop-color="#cce0f4"/><stop offset="0" stop-color="#c3d8ef"/><stop offset="0" stop-color="#a9c2e3"/><stop offset="0" stop-color="#809ecf"/><stop offset="0" stop-color="#476cb3"/><stop offset="0" stop-color="#335ba9"/><stop offset="0.01" stop-color="#627abb"/></linearGradient><linearGradient id="未命名的渐变_94-2" x1="301.76" y1="106.49" x2="320.27" y2="106.49" xlink:href="#未命名的渐变_94"/><linearGradient id="未命名的渐变_94-3" x1="301.76" y1="131.9" x2="320.27" y2="131.9" xlink:href="#未命名的渐变_94"/><linearGradient id="未命名的渐变_94-4" x1="301.76" y1="173.64" x2="320.27" y2="173.64" xlink:href="#未命名的渐变_94"/><linearGradient id="未命名的渐变_94-5" x1="303.57" y1="154.04" x2="307.56" y2="154.04" xlink:href="#未命名的渐变_94"/><linearGradient id="未命名的渐变_94-6" x1="309.56" y1="154.22" x2="313.55" y2="154.22" xlink:href="#未命名的渐变_94"/><linearGradient id="未命名的渐变_94-7" x1="315.37" y1="154.22" x2="319.36" y2="154.22" xlink:href="#未命名的渐变_94"/><linearGradient id="未命名的渐变_109" x1="340.42" y1="51.86" x2="358.93" y2="51.86" gradientUnits="userSpaceOnUse"><stop offset="0.17" stop-color="#627abb"/><stop offset="1" stop-color="#335ba9"/></linearGradient><linearGradient id="未命名的渐变_109-2" x1="341.14" y1="77.99" x2="359.65" y2="77.99" xlink:href="#未命名的渐变_109"/><linearGradient id="未命名的渐变_109-3" x1="341.5" y1="104.49" x2="360.02" y2="104.49" xlink:href="#未命名的渐变_109"/><linearGradient id="未命名的渐变_109-4" x1="341.5" y1="135.35" x2="360.02" y2="135.35" xlink:href="#未命名的渐变_109"/><linearGradient id="未命名的渐变_109-5" x1="341.69" y1="154.41" x2="345.68" y2="154.41" xlink:href="#未命名的渐变_109"/><linearGradient id="未命名的渐变_109-6" x1="347.67" y1="154.59" x2="351.67" y2="154.59" xlink:href="#未命名的渐变_109"/><linearGradient id="未命名的渐变_109-7" x1="353.48" y1="154.59" x2="357.48" y2="154.59" xlink:href="#未命名的渐变_109"/><linearGradient id="未命名的渐变_109-8" x1="340.42" y1="173.46" x2="358.93" y2="173.46" xlink:href="#未命名的渐变_109"/><linearGradient id="未命名的渐变_109-9" x1="340.42" y1="201.41" x2="358.93" y2="201.41" xlink:href="#未命名的渐变_109"/><linearGradient id="未命名的渐变_109-10" x1="437.73" y1="51.81" x2="456.28" y2="51.81" xlink:href="#未命名的渐变_109"/><linearGradient id="未命名的渐变_109-11" x1="438.45" y1="78" x2="457" y2="78" xlink:href="#未命名的渐变_109"/><linearGradient id="未命名的渐变_109-12" x1="438.82" y1="104.55" x2="457.37" y2="104.55" xlink:href="#未命名的渐变_109"/><linearGradient id="未命名的渐变_109-13" x1="438.82" y1="135.47" x2="457.37" y2="135.47" xlink:href="#未命名的渐变_109"/><linearGradient id="未命名的渐变_109-14" x1="439" y1="154.56" x2="443" y2="154.56" xlink:href="#未命名的渐变_109"/><linearGradient id="未命名的渐变_109-15" x1="445" y1="154.74" x2="449" y2="154.74" xlink:href="#未命名的渐变_109"/><linearGradient id="未命名的渐变_109-16" x1="450.82" y1="154.74" x2="454.82" y2="154.74" xlink:href="#未命名的渐变_109"/><linearGradient id="未命名的渐变_109-17" x1="437.73" y1="173.66" x2="456.28" y2="173.66" xlink:href="#未命名的渐变_109"/><linearGradient id="未命名的渐变_109-18" x1="437.73" y1="201.66" x2="456.28" y2="201.66" xlink:href="#未命名的渐变_109"/><linearGradient id="未命名的渐变_123" x1="478.28" y1="73.63" x2="496.83" y2="73.63" gradientUnits="userSpaceOnUse"><stop offset="0.46" stop-color="#ed1c24"/><stop offset="1" stop-color="red"/></linearGradient><linearGradient id="未命名的渐变_133" x1="478.28" y1="100.55" x2="496.83" y2="100.55" gradientUnits="userSpaceOnUse"><stop offset="0.03" stop-color="#fbb03b"/><stop offset="0.46" stop-color="#ff931e"/><stop offset="1" stop-color="#f15a24"/></linearGradient><linearGradient id="未命名的渐变_143" x1="478.28" y1="127.46" x2="496.83" y2="127.46" gradientUnits="userSpaceOnUse"><stop offset="0" stop-color="#d9e021"/><stop offset="0.61" stop-color="#fcee21"/></linearGradient><linearGradient id="未命名的渐变_148" x1="478.28" y1="154.38" x2="496.83" y2="154.38" gradientUnits="userSpaceOnUse"><stop offset="0.34" stop-color="#0071bc"/><stop offset="1" stop-color="#0006fb"/><stop offset="1" stop-color="blue"/></linearGradient><linearGradient id="未命名的渐变_155" x1="478.28" y1="183.11" x2="496.83" y2="183.11" gradientUnits="userSpaceOnUse"><stop offset="0" stop-color="#39b54a"/><stop offset="1" stop-color="#056f39"/><stop offset="1" stop-color="#006837"/></linearGradient><linearGradient id="未命名的渐变_109-19" x1="392.69" y1="154.41" x2="396.68" y2="154.41" xlink:href="#未命名的渐变_109"/><linearGradient id="未命名的渐变_109-20" x1="398.67" y1="154.59" x2="402.67" y2="154.59" xlink:href="#未命名的渐变_109"/><linearGradient id="未命名的渐变_109-21" x1="404.48" y1="154.59" x2="408.48" y2="154.59" xlink:href="#未命名的渐变_109"/><clipPath id="clip-path"><rect class="cls-2" x="252" y="76" width="49" height="10.12"/></clipPath><clipPath id="clip-path-2"><rect class="cls-2" x="252" y="101" width="49" height="10.12"/></clipPath><clipPath id="clip-path-3"><rect class="cls-2" x="252" y="127" width="49" height="10.12"/></clipPath><clipPath id="clip-path-4"><rect class="cls-2" x="252" y="169" width="49" height="10.12"/></clipPath><clipPath id="clip-path-5"><rect class="cls-2" x="502" y="70" width="49" height="10.12"/></clipPath><clipPath id="clip-path-6"><rect class="cls-2" x="502" y="97" width="49" height="10.12"/></clipPath><clipPath id="clip-path-7"><rect class="cls-2" x="502" y="123" width="49" height="10.12"/></clipPath><clipPath id="clip-path-8"><rect class="cls-2" x="502" y="149" width="49" height="10.12"/></clipPath><clipPath id="clip-path-9"><rect class="cls-2" x="502" y="178" width="49" height="10.12"/></clipPath><linearGradient id="未命名的渐变_93" x1="16.87" y1="84.64" x2="63.19" y2="84.64" gradientUnits="userSpaceOnUse"><stop offset="0" stop-color="#627abb"/><stop offset="1" stop-color="#374d98"/></linearGradient><linearGradient id="未命名的渐变_93-2" x1="30.53" y1="96.02" x2="72.1" y2="96.02" xlink:href="#未命名的渐变_93"/><linearGradient id="新建渐变色板_1-3" x1="20.4" y1="241" x2="59" y2="241" xlink:href="#新建渐变色板_1"/><linearGradient id="新建渐变色板_1-4" x1="20.4" y1="251.54" x2="59" y2="251.54" xlink:href="#新建渐变色板_1"/><linearGradient id="新建渐变色板_1-5" x1="20.4" y1="264.42" x2="59" y2="264.42" xlink:href="#新建渐变色板_1"/><linearGradient id="新建渐变色板_1-6" x1="20.4" y1="270.87" x2="59" y2="270.87" xlink:href="#新建渐变色板_1"/><clipPath id="clip-path-10"><rect class="cls-2" x="638" y="73" width="110.33" height="108.01"/></clipPath><clipPath id="clip-path-12"><path class="cls-2" d="M693.35,73a2.5,2.5,0,0,0-1.52.4L639.58,99.63l51.85,23a4.18,4.18,0,0,0,2,.4,4.26,4.26,0,0,0,2-.4l52.25-23L695,73.4a2.46,2.46,0,0,0-1.51-.4Z"/></clipPath><linearGradient id="未命名的渐变_5" x1="-392.27" y1="-51.17" x2="-391.33" y2="-51.17" gradientTransform="matrix(116.11, 0, 0, -116.11, 46192.83, -5842.93)" gradientUnits="userSpaceOnUse"><stop offset="0" stop-color="#cce0f4"/><stop offset="0" stop-color="#c2d7ef"/><stop offset="0" stop-color="#a9bee1"/><stop offset="0.01" stop-color="#7f96cb"/><stop offset="0.01" stop-color="#627abb"/><stop offset="1" stop-color="#335ba9"/></linearGradient><clipPath id="clip-path-14"><rect class="cls-2" x="638.23" y="106.25" width="52.05" height="74.53"/></clipPath><clipPath id="clip-path-16"><path class="cls-2" d="M690.28,129.67v51.11l-50.85-23.22a2.68,2.68,0,0,1-1.2-2V106.25l50.85,21.62a2.3,2.3,0,0,1,1.2,1.8"/></clipPath><mask id="mask" x="600.97" y="80.22" width="126.57" height="126.57" maskUnits="userSpaceOnUse"><rect class="cls-1" x="619.5" y="98.76" width="89.5" height="89.5" transform="translate(93.08 511.73) rotate(-45)"/></mask><linearGradient id="未命名的渐变_2" x1="-388.8" y1="-60.99" x2="-387.87" y2="-60.99" gradientTransform="matrix(55.9, 0, 0, -55.9, 22398.79, -3265.66)" gradientUnits="userSpaceOnUse"><stop offset="0" stop-color="#627abb"/><stop offset="0.65" stop-color="#335ba9"/><stop offset="1" stop-color="#335ba9"/></linearGradient><clipPath id="clip-path-17"><rect class="cls-2" x="696.05" y="105.85" width="52.05" height="74.93"/></clipPath><clipPath id="clip-path-19"><path class="cls-2" d="M748.1,105.85v49.31a3.4,3.4,0,0,1-1.2,2l-50.85,23.62V129.67a2.32,2.32,0,0,1,1.2-1.8Z"/></clipPath><linearGradient id="未命名的渐变_4" x1="-388.83" y1="-60.94" x2="-387.9" y2="-60.94" gradientTransform="matrix(55.91, 0, 0, -55.91, 22443.32, -3263.94)" gradientUnits="userSpaceOnUse"><stop offset="0" stop-color="#627abb"/><stop offset="1" stop-color="#335ba9"/></linearGradient></defs><title>画板 1</title><text class="cls-3" transform="translate(412.07 306.34)">趋势预测</text><text class="cls-3" transform="translate(186.07 98.34)">训练</text><path class="cls-4" d="M202.35,250.22a1.7,1.7,0,0,0-.17-.54l-5.74-12.63-.06-.14v0l0,0A1.58,1.58,0,0,0,195,236H161.41a1.59,1.59,0,0,0-.94.34.67.67,0,0,0-.14.09c-.05,0-.09.11-.14.17a1.68,1.68,0,0,0-.24.28l-5.8,12.8a1.63,1.63,0,0,0-.13.39,1.56,1.56,0,0,0-.24.79v34.78a1.6,1.6,0,0,0,1.6,1.6h45.51a1.6,1.6,0,0,0,1.6-1.6V250.87a1.62,1.62,0,0,0-.14-.65Zm-39.94-11h31.5l4.63,10.08H157.78l4.64-10.08ZM157,252.46H199.3v31.59H157V252.46Z"/><path class="cls-5" d="M195.54,259.27a1.67,1.67,0,0,0-2.35-.23h0l-11.55,9.47-5.46-5.09a2.14,2.14,0,0,0-.32-.2l-.12-.07a1.42,1.42,0,0,0-.4-.12l-.25,0a1.43,1.43,0,0,0-.29,0,1.24,1.24,0,0,0-.38.09l-.14.07a1.62,1.62,0,0,0-.32.17L161.3,273.73a1.67,1.67,0,0,0,2.11,2.58L175,266.83l5.46,5.09a1.61,1.61,0,0,0,.33.2l.11.07a1.42,1.42,0,0,0,.4.12,1.17,1.17,0,0,0,.26,0l.27,0a2.59,2.59,0,0,0,.4-.09l.13-.08a1.48,1.48,0,0,0,.33-.17l12.65-10.38a1.67,1.67,0,0,0,.24-2.34Z"/><text class="cls-3" transform="translate(126 311)">回归预测模型</text><text class="cls-3" transform="translate(166.7 172.71) rotate(-90)">拟合</text><text class="cls-3" transform="translate(85 266)">预测</text><rect class="cls-6" x="239.93" y="9" width="565.64" height="249"/><polyline class="cls-7" points="805.57 252 805.57 258 799.57 258"/><line class="cls-8" x1="787.79" y1="258" x2="251.82" y2="258"/><polyline class="cls-7" points="245.93 258 239.93 258 239.93 252"/><line class="cls-9" x1="239.93" y1="239.53" x2="239.93" y2="21.24"/><polyline class="cls-7" points="239.93 15 239.93 9 245.93 9"/><line class="cls-8" x1="257.71" y1="9" x2="793.68" y2="9"/><polyline class="cls-7" points="799.57 9 805.57 9 805.57 15"/><line class="cls-9" x1="805.57" y1="27.47" x2="805.57" y2="245.76"/><rect class="cls-10" x="252" y="35" width="299" height="183"/><text class="cls-3" transform="translate(363 122)">神经网络</text><text class="cls-11" transform="translate(434 243.88)">DNN深度神经网络</text><circle class="cls-12" cx="311.01" cy="81.08" r="9.26"/><circle class="cls-13" cx="311.01" cy="106.49" r="9.26"/><circle class="cls-14" cx="311.01" cy="131.9" r="9.26"/><circle class="cls-15" cx="311.01" cy="173.64" r="9.26"/><circle class="cls-16" cx="305.57" cy="154.04" r="2"/><circle class="cls-17" cx="311.56" cy="154.22" r="2"/><circle class="cls-18" cx="317.36" cy="154.22" r="2"/><circle class="cls-19" cx="349.67" cy="51.86" r="9.26"/><circle class="cls-20" cx="350.4" cy="77.99" r="9.26"/><circle class="cls-21" cx="350.76" cy="104.49" r="9.26"/><circle class="cls-22" cx="350.76" cy="135.35" r="9.26"/><circle class="cls-23" cx="343.68" cy="154.41" r="2"/><circle class="cls-24" cx="349.67" cy="154.59" r="2"/><circle class="cls-25" cx="355.48" cy="154.59" r="2"/><circle class="cls-26" cx="349.67" cy="173.46" r="9.26"/><circle class="cls-27" cx="349.67" cy="201.41" r="9.26"/><circle class="cls-28" cx="447" cy="51.81" r="9.28"/><circle class="cls-29" cx="447.73" cy="78" r="9.28"/><circle class="cls-30" cx="448.09" cy="104.55" r="9.28"/><circle class="cls-31" cx="448.09" cy="135.47" r="9.28"/><circle class="cls-32" cx="441" cy="154.56" r="2"/><circle class="cls-33" cx="447" cy="154.74" r="2"/><circle class="cls-34" cx="452.82" cy="154.74" r="2"/><circle class="cls-35" cx="447" cy="173.66" r="9.28"/><circle class="cls-36" cx="447" cy="201.66" r="9.28"/><circle class="cls-37" cx="487.56" cy="73.63" r="9.28"/><circle class="cls-38" cx="487.56" cy="100.55" r="9.28"/><circle class="cls-39" cx="487.56" cy="127.46" r="9.28"/><circle class="cls-40" cx="487.56" cy="154.38" r="9.28"/><circle class="cls-41" cx="487.56" cy="183.11" r="9.28"/><line class="cls-42" x1="320.27" y1="79.81" x2="341.69" y2="56.58"/><line class="cls-42" x1="320.27" y1="79.81" x2="341.32" y2="79.45"/><line class="cls-42" x1="320.27" y1="106.31" x2="341.69" y2="106.31"/><line class="cls-42" x1="320.27" y1="106.31" x2="341.32" y2="135.35"/><line class="cls-42" x1="320.27" y1="133.17" x2="341.32" y2="135.35"/><line class="cls-42" x1="320.27" y1="133.17" x2="340.23" y2="173.46"/><line class="cls-42" x1="320.27" y1="106.31" x2="341.32" y2="79.45"/><line class="cls-42" x1="320.27" y1="79.81" x2="341.69" y2="106.31"/><line class="cls-42" x1="320.27" y1="133.17" x2="340.23" y2="201.41"/><line class="cls-42" x1="320.27" y1="79.81" x2="341.32" y2="135.35"/><line class="cls-2" x1="320.27" y1="106.31" x2="340.23" y2="173.46"/><line class="cls-42" x1="320.27" y1="133.17" x2="341.69" y2="106.31"/><line class="cls-42" x1="320.27" y1="80.9" x2="340.23" y2="173.46"/><line class="cls-42" x1="320.27" y1="106.31" x2="340.23" y2="201.41"/><line class="cls-42" x1="320.27" y1="133.17" x2="341.32" y2="79.45"/><line class="cls-42" x1="320.27" y1="106.31" x2="341.69" y2="56.58"/><line class="cls-42" x1="320.27" y1="80.9" x2="340.23" y2="201.41"/><line class="cls-42" x1="320.27" y1="106.31" x2="340.23" y2="173.46"/><line class="cls-42" x1="320.27" y1="133.17" x2="341.69" y2="56.58"/><line class="cls-42" x1="320.27" y1="173.46" x2="340.96" y2="202.87"/><line class="cls-42" x1="320.27" y1="173.83" x2="341.32" y2="135.35"/><line class="cls-42" x1="458.46" y1="51.81" x2="478.47" y2="72.54"/><line class="cls-42" x1="478.47" y1="100.55" x2="458.46" y2="51.81"/><line class="cls-42" x1="478.47" y1="127.46" x2="458.46" y2="51.81"/><line class="cls-42" x1="478.47" y1="154.38" x2="458.46" y2="51.81"/><line class="cls-42" x1="478.47" y1="184.2" x2="458.46" y2="51.81"/><line class="cls-42" x1="478.47" y1="72.54" x2="459.19" y2="78"/><line class="cls-42" x1="478.47" y1="100.55" x2="459.19" y2="78"/><line class="cls-42" x1="478.47" y1="127.46" x2="459.19" y2="78"/><line class="cls-42" x1="478.47" y1="154.38" x2="459.19" y2="78"/><line class="cls-42" x1="478.47" y1="184.2" x2="459.19" y2="78"/><line class="cls-42" x1="478.47" y1="72.54" x2="459.55" y2="104.55"/><line class="cls-42" x1="478.47" y1="100.55" x2="459.55" y2="104.55"/><line class="cls-42" x1="478.47" y1="127.46" x2="459.55" y2="104.55"/><line class="cls-42" x1="478.47" y1="154.38" x2="459.55" y2="104.55"/><line class="cls-42" x1="478.47" y1="183.11" x2="459.55" y2="104.55"/><line class="cls-42" x1="478.47" y1="72.54" x2="459.55" y2="135.47"/><line class="cls-42" x1="478.47" y1="100.55" x2="459.55" y2="135.47"/><line class="cls-42" x1="478.47" y1="127.46" x2="459.55" y2="135.47"/><line class="cls-42" x1="478.47" y1="154.38" x2="459.55" y2="135.47"/><line class="cls-42" x1="478.47" y1="184.2" x2="459.55" y2="135.47"/><line class="cls-42" x1="478.47" y1="73.63" x2="458.46" y2="173.66"/><line class="cls-42" x1="478.47" y1="100.55" x2="458.46" y2="173.66"/><line class="cls-42" x1="478.47" y1="127.46" x2="458.46" y2="173.66"/><line class="cls-42" x1="478.47" y1="154.38" x2="458.46" y2="173.66"/><line class="cls-42" x1="478.47" y1="184.2" x2="458.91" y2="173.83"/><line class="cls-42" x1="478.47" y1="73.63" x2="458.46" y2="201.66"/><line class="cls-42" x1="478.47" y1="100.55" x2="458.1" y2="203.12"/><line class="cls-42" x1="478.47" y1="127.46" x2="458.1" y2="203.12"/><line class="cls-42" x1="478.47" y1="154.38" x2="458.1" y2="203.12"/><line class="cls-42" x1="478.47" y1="184.2" x2="458.1" y2="203.12"/><line class="cls-42" x1="320.27" y1="173.83" x2="340.23" y2="173.46"/><line class="cls-42" x1="320.27" y1="173.83" x2="341.69" y2="106.31"/><line class="cls-42" x1="320.27" y1="173.46" x2="341.5" y2="80.5"/><line class="cls-42" x1="320.27" y1="173.46" x2="341.69" y2="56.58"/><circle class="cls-43" cx="394.68" cy="154.41" r="2"/><circle class="cls-44" cx="400.67" cy="154.59" r="2"/><circle class="cls-45" cx="406.48" cy="154.59" r="2"/><polygon class="cls-46" points="690.08 275 696.95 275 696.99 203.62 703 203.62 693.52 184 684 203.62 690.05 203.62 690.08 275"/><polygon class="cls-46" points="758 124.08 758 130.95 820.38 130.99 820.38 137 840 127.52 820.38 118 820.38 124.05 758 124.08"/><text class="cls-3" transform="translate(669.07 57.34)">模型</text><polygon class="cls-46" points="78 102.08 78 108.95 233.38 108.99 233.38 115 252 105.52 233.38 96 233.38 102.05 78 102.08"/><g id="图稿_2" data-name="图稿 2"><g class="cls-47"><polygon class="cls-46" points="288.95 76 288.95 79.22 252 79.24 252 82.9 288.95 82.92 288.95 86.12 301 81.07 288.95 76"/></g></g><g id="图稿_2-2" data-name="图稿 2"><g class="cls-48"><polygon class="cls-46" points="288.95 101 288.95 104.22 252 104.24 252 107.9 288.95 107.92 288.95 111.12 301 106.07 288.95 101"/></g></g><g id="图稿_2-3" data-name="图稿 2"><g class="cls-49"><polygon class="cls-46" points="288.95 127 288.95 130.22 252 130.24 252 133.9 288.95 133.92 288.95 137.12 301 132.07 288.95 127"/></g></g><g id="图稿_2-4" data-name="图稿 2"><g class="cls-50"><polygon class="cls-46" points="288.95 169 288.95 172.22 252 172.24 252 175.9 288.95 175.92 288.95 179.12 301 174.07 288.95 169"/></g></g><g id="图稿_2-5" data-name="图稿 2"><g class="cls-51"><polygon class="cls-46" points="538.95 70 538.95 73.22 502 73.24 502 76.9 538.95 76.92 538.95 80.12 551 75.07 538.95 70"/></g></g><g id="图稿_2-6" data-name="图稿 2"><g class="cls-52"><polygon class="cls-46" points="538.95 97 538.95 100.22 502 100.24 502 103.9 538.95 103.92 538.95 107.12 551 102.07 538.95 97"/></g></g><g id="图稿_2-7" data-name="图稿 2"><g class="cls-53"><polygon class="cls-46" points="538.95 123 538.95 126.22 502 126.24 502 129.9 538.95 129.92 538.95 133.12 551 128.07 538.95 123"/></g></g><g id="图稿_2-8" data-name="图稿 2"><g class="cls-54"><polygon class="cls-46" points="538.95 149 538.95 152.22 502 152.24 502 155.9 538.95 155.92 538.95 159.12 551 154.07 538.95 149"/></g></g><g id="图稿_2-9" data-name="图稿 2"><g class="cls-55"><polygon class="cls-46" points="538.95 178 538.95 181.22 502 181.24 502 184.9 538.95 184.92 538.95 188.12 551 183.07 538.95 178"/></g></g><polygon class="cls-46" points="558 124.08 558 130.95 611.38 130.99 611.38 137 631 127.52 611.38 118 611.38 124.05 558 124.08"/><g id="图层_2" data-name="图层 2"><path class="cls-56" d="M31.12,99.73V94.39a.85.85,0,0,0-.82-.89h-9a.86.86,0,0,0-.89.82v5.41a.85.85,0,0,0,.83.89h9a.86.86,0,0,0,.89-.82Zm0-10.68V83.7a.86.86,0,0,0-.82-.89h-9a.87.87,0,0,0-.89.83v5.41a.87.87,0,0,0,.83.89h9a.86.86,0,0,0,.89-.82v-.07Zm0-10.69V73a.86.86,0,0,0-.82-.89h-9a.87.87,0,0,0-.89.83v5.41a.87.87,0,0,0,.83.89h9a.87.87,0,0,0,.89-.82v-.07Zm14.25-2.77V73a.85.85,0,0,0-.82-.89h-9a.85.85,0,0,0-.89.82v3.16l-4,28.16-9.34-.07a4.46,4.46,0,0,1-4.45-4.47V69.45a4.25,4.25,0,0,1,1.31-3.14A4.31,4.31,0,0,1,21.32,65H58.73a4.47,4.47,0,0,1,4.46,4.46h0v6.23H45.77m13.85,0V73a.85.85,0,0,0-.82-.89h-9a.86.86,0,0,0-.89.83v2.74Z"/></g><g id="图层_1-2" data-name="图层 1"><path class="cls-57" d="M55.47,96h3.12v5.86l5.07,2.93-1.56,2.7-6.63-3.83V96M34.69,75.24H63.78a4.15,4.15,0,0,1,4.16,4.15h0V92.07a14.55,14.55,0,0,1-20.57,20.58H34.69a4.16,4.16,0,0,1-4.16-4.16V79.4a4.16,4.16,0,0,1,4.16-4.16m0,27v6.24h9.7A14.61,14.61,0,0,1,43,102.26H34.69m0-14.55H47.16V81.48H34.69v6.23m29.09,0V81.48H51.31v6.24H63.78M34.69,98.1H43.6a14.49,14.49,0,0,1,3.76-6.23H34.69V98.1m22.86-5.92a10.07,10.07,0,1,0,3.29.55A10.06,10.06,0,0,0,57.55,92.18Z"/></g><text class="cls-3" transform="translate(6 139)">历史数据</text><text class="cls-3" transform="translate(4 310)">实时数据</text><polyline class="cls-46" points="697 275.05 213 275.08 213 281.95 697 281.99"/><polygon class="cls-46" points="181.92 109 175.05 109 175.01 211.38 169 211.38 178.48 231 188 211.38 181.95 211.38 181.92 109"/><polygon class="cls-46" points="73 275.08 73 281.95 126.38 281.99 126.38 288 146 278.52 126.38 269 126.38 275.05 73 275.08"/><path class="cls-58" d="M39.7,250c-11,0-19.3-3.84-19.3-9s8.24-9,19.3-9S59,235.85,59,241,50.69,250,39.7,250Zm0-15.45c-9.89,0-16.76,3.37-16.76,6.46s6.87,6.45,16.76,6.45S56.46,244,56.46,241,49.52,234.54,39.7,234.54Z"/><path class="cls-59" d="M39.7,262.49c-11,0-19.3-3.84-19.3-9V240.59H23V253.5c0,3,6.87,6.45,16.76,6.45s16.76-3.36,16.76-6.45V240.59H59V253.5c0,5.08-8.31,9-19.3,9Z"/><path class="cls-60" d="M39.7,275.34c-11,0-19.3-3.85-19.3-9V253.5H23v12.84c0,3,6.87,6.46,16.76,6.46s16.76-3.37,16.76-6.46V253.5H59v12.84c0,5.15-8.31,9-19.3,9Z"/><path class="cls-61" d="M39.7,288.25c-11,0-19.3-3.85-19.3-9V266.34H23v12.91c0,3,6.87,6.46,16.76,6.46s16.76-3.37,16.76-6.46V266.34H59v12.91c0,5.09-8.31,9-19.3,9ZM33.24,253.5h2.61v2.61H33.24Zm5.16,0H41v2.61H38.4Zm5.15,0h2.61v2.61H43.55Z"/><g id="图稿_3" data-name="图稿 3"><g class="cls-62"><g class="cls-62"><g class="cls-63"><rect class="cls-64" x="634.31" y="49.33" width="118.64" height="97.39" transform="translate(43.92 359.95) rotate(-30)"/></g><g class="cls-62"><g class="cls-65"><g class="cls-65"><g class="cls-66"><g class="cls-67"><rect class="cls-68" x="619.5" y="98.76" width="89.5" height="89.5" transform="translate(93.08 511.73) rotate(-45)"/></g></g></g></g><g class="cls-69"><g class="cls-69"><g class="cls-70"><rect class="cls-71" x="677.18" y="98.42" width="89.79" height="89.79" transform="translate(110.15 552.56) rotate(-45)"/></g></g></g></g></g></g></g></svg>