<svg xmlns="http://www.w3.org/2000/svg" xmlns:xlink="http://www.w3.org/1999/xlink" viewBox="0 0 771 315"><defs><style>.cls-1{fill:url(#未命名的渐变_3);}.cls-2,.cls-4,.cls-42,.cls-5,.cls-6{fill:none;}.cls-3{fill:#dff1f5;}.cls-4,.cls-5,.cls-6{stroke:#999;stroke-width:2px;}.cls-4,.cls-42,.cls-5,.cls-6,.cls-7{stroke-miterlimit:10;}.cls-5{stroke-dasharray:11.78 11.78;}.cls-6{stroke-dasharray:12.47 12.47;}.cls-7{fill:#f3f4bd;stroke:#ccc;stroke-dasharray:12;}.cls-8{fill:url(#未命名的渐变_93);}.cls-9{fill:url(#未命名的渐变_93-2);}.cls-10{font-size:18px;}.cls-10,.cls-11{font-family:AdobeSongStd-Light-GBpc-EUC-H, Adobe Song Std;}.cls-11{font-size:21px;}.cls-12{fill:url(#未命名的渐变_94);}.cls-13{fill:url(#未命名的渐变_94-2);}.cls-14{fill:url(#未命名的渐变_94-3);}.cls-15{fill:url(#未命名的渐变_94-4);}.cls-16{fill:url(#未命名的渐变_94-5);}.cls-17{fill:url(#未命名的渐变_94-6);}.cls-18{fill:url(#未命名的渐变_94-7);}.cls-19{fill:url(#未命名的渐变_109);}.cls-20{fill:url(#未命名的渐变_109-2);}.cls-21{fill:url(#未命名的渐变_109-3);}.cls-22{fill:url(#未命名的渐变_109-4);}.cls-23{fill:url(#未命名的渐变_109-5);}.cls-24{fill:url(#未命名的渐变_109-6);}.cls-25{fill:url(#未命名的渐变_109-7);}.cls-26{fill:url(#未命名的渐变_109-8);}.cls-27{fill:url(#未命名的渐变_109-9);}.cls-28{fill:url(#未命名的渐变_109-10);}.cls-29{fill:url(#未命名的渐变_109-11);}.cls-30{fill:url(#未命名的渐变_109-12);}.cls-31{fill:url(#未命名的渐变_109-13);}.cls-32{fill:url(#未命名的渐变_109-14);}.cls-33{fill:url(#未命名的渐变_109-15);}.cls-34{fill:url(#未命名的渐变_109-16);}.cls-35{fill:url(#未命名的渐变_109-17);}.cls-36{fill:url(#未命名的渐变_109-18);}.cls-37{fill:url(#未命名的渐变_123);}.cls-38{fill:url(#未命名的渐变_133);}.cls-39{fill:url(#未命名的渐变_143);}.cls-40{fill:url(#未命名的渐变_148);}.cls-41{fill:url(#未命名的渐变_155);}.cls-42{stroke:#000;stroke-width:0.25px;}.cls-43{clip-path:url(#clip-path);}.cls-44{clip-path:url(#clip-path-3);}.cls-45{fill:url(#未命名的渐变_5);}.cls-46{clip-path:url(#clip-path-5);}.cls-47{clip-path:url(#clip-path-7);}.cls-48{mask:url(#mask);}.cls-49{fill:url(#未命名的渐变_2);}.cls-50{clip-path:url(#clip-path-8);}.cls-51{clip-path:url(#clip-path-10);}.cls-52{fill:url(#未命名的渐变_4);}.cls-53{fill:url(#未命名的渐变_109-19);}.cls-54{fill:url(#未命名的渐变_109-20);}.cls-55{fill:url(#未命名的渐变_109-21);}.cls-56{fill:#6392c1;}.cls-57{fill:url(#新建渐变色板_1);}.cls-58{fill:url(#新建渐变色板_1-2);}.cls-59{fill:url(#新建渐变色板_1-3);}.cls-60{fill:url(#新建渐变色板_1-4);}.cls-61{fill:url(#新建渐变色板_1-5);}.cls-62{fill:url(#新建渐变色板_1-6);}.cls-63{fill:url(#新建渐变色板_1-7);}.cls-64{clip-path:url(#clip-path-11);}.cls-65{clip-path:url(#clip-path-12);}.cls-66{clip-path:url(#clip-path-13);}.cls-67{clip-path:url(#clip-path-14);}.cls-68{clip-path:url(#clip-path-15);}.cls-69{clip-path:url(#clip-path-16);}.cls-70{clip-path:url(#clip-path-17);}.cls-71{clip-path:url(#clip-path-18);}.cls-72{clip-path:url(#clip-path-19);}</style><linearGradient id="未命名的渐变_3" x1="-297.74" y1="-37.6" x2="-296.8" y2="-37.6" gradientTransform="matrix(55.9, 0, 0, -55.9, 17230.33, -1955.24)" gradientUnits="userSpaceOnUse"><stop offset="0" stop-color="#e6e6e6"/><stop offset="0.65" stop-color="#fff"/><stop offset="1" stop-color="#fff"/></linearGradient><linearGradient id="未命名的渐变_93" x1="17.87" y1="92.64" x2="64.19" y2="92.64" gradientUnits="userSpaceOnUse"><stop offset="0" stop-color="#627abb"/><stop offset="1" stop-color="#374d98"/></linearGradient><linearGradient id="未命名的渐变_93-2" x1="31.53" y1="104.02" x2="73.1" y2="104.02" xlink:href="#未命名的渐变_93"/><linearGradient id="未命名的渐变_94" x1="222.76" y1="85.08" x2="241.27" y2="85.08" gradientUnits="userSpaceOnUse"><stop offset="0" stop-color="#cce0f4"/><stop offset="0" stop-color="#c3d8ef"/><stop offset="0" stop-color="#a9c2e3"/><stop offset="0" stop-color="#809ecf"/><stop offset="0" stop-color="#476cb3"/><stop offset="0" stop-color="#335ba9"/><stop offset="0.01" stop-color="#627abb"/></linearGradient><linearGradient id="未命名的渐变_94-2" x1="222.76" y1="110.49" x2="241.27" y2="110.49" xlink:href="#未命名的渐变_94"/><linearGradient id="未命名的渐变_94-3" x1="222.76" y1="135.9" x2="241.27" y2="135.9" xlink:href="#未命名的渐变_94"/><linearGradient id="未命名的渐变_94-4" x1="222.76" y1="177.64" x2="241.27" y2="177.64" xlink:href="#未命名的渐变_94"/><linearGradient id="未命名的渐变_94-5" x1="224.57" y1="158.04" x2="228.56" y2="158.04" xlink:href="#未命名的渐变_94"/><linearGradient id="未命名的渐变_94-6" x1="230.56" y1="158.22" x2="234.55" y2="158.22" xlink:href="#未命名的渐变_94"/><linearGradient id="未命名的渐变_94-7" x1="236.37" y1="158.22" x2="240.36" y2="158.22" xlink:href="#未命名的渐变_94"/><linearGradient id="未命名的渐变_109" x1="261.42" y1="55.86" x2="279.93" y2="55.86" gradientUnits="userSpaceOnUse"><stop offset="0.17" stop-color="#627abb"/><stop offset="1" stop-color="#335ba9"/></linearGradient><linearGradient id="未命名的渐变_109-2" x1="262.14" y1="81.99" x2="280.65" y2="81.99" xlink:href="#未命名的渐变_109"/><linearGradient id="未命名的渐变_109-3" x1="262.5" y1="108.49" x2="281.02" y2="108.49" xlink:href="#未命名的渐变_109"/><linearGradient id="未命名的渐变_109-4" x1="262.5" y1="139.35" x2="281.02" y2="139.35" xlink:href="#未命名的渐变_109"/><linearGradient id="未命名的渐变_109-5" x1="262.69" y1="158.41" x2="266.68" y2="158.41" xlink:href="#未命名的渐变_109"/><linearGradient id="未命名的渐变_109-6" x1="268.67" y1="158.59" x2="272.67" y2="158.59" xlink:href="#未命名的渐变_109"/><linearGradient id="未命名的渐变_109-7" x1="274.48" y1="158.59" x2="278.48" y2="158.59" xlink:href="#未命名的渐变_109"/><linearGradient id="未命名的渐变_109-8" x1="261.42" y1="177.46" x2="279.93" y2="177.46" xlink:href="#未命名的渐变_109"/><linearGradient id="未命名的渐变_109-9" x1="261.42" y1="205.41" x2="279.93" y2="205.41" xlink:href="#未命名的渐变_109"/><linearGradient id="未命名的渐变_109-10" x1="358.73" y1="55.81" x2="377.28" y2="55.81" xlink:href="#未命名的渐变_109"/><linearGradient id="未命名的渐变_109-11" x1="359.45" y1="82" x2="378" y2="82" xlink:href="#未命名的渐变_109"/><linearGradient id="未命名的渐变_109-12" x1="359.82" y1="108.55" x2="378.37" y2="108.55" xlink:href="#未命名的渐变_109"/><linearGradient id="未命名的渐变_109-13" x1="359.82" y1="139.47" x2="378.37" y2="139.47" xlink:href="#未命名的渐变_109"/><linearGradient id="未命名的渐变_109-14" x1="360" y1="158.56" x2="364" y2="158.56" xlink:href="#未命名的渐变_109"/><linearGradient id="未命名的渐变_109-15" x1="366" y1="158.74" x2="370" y2="158.74" xlink:href="#未命名的渐变_109"/><linearGradient id="未命名的渐变_109-16" x1="371.82" y1="158.74" x2="375.82" y2="158.74" xlink:href="#未命名的渐变_109"/><linearGradient id="未命名的渐变_109-17" x1="358.73" y1="177.66" x2="377.28" y2="177.66" xlink:href="#未命名的渐变_109"/><linearGradient id="未命名的渐变_109-18" x1="358.73" y1="205.66" x2="377.28" y2="205.66" xlink:href="#未命名的渐变_109"/><linearGradient id="未命名的渐变_123" x1="399.28" y1="77.63" x2="417.83" y2="77.63" gradientUnits="userSpaceOnUse"><stop offset="0.46" stop-color="#ed1c24"/><stop offset="1" stop-color="red"/></linearGradient><linearGradient id="未命名的渐变_133" x1="399.28" y1="104.55" x2="417.83" y2="104.55" gradientUnits="userSpaceOnUse"><stop offset="0.03" stop-color="#fbb03b"/><stop offset="0.46" stop-color="#ff931e"/><stop offset="1" stop-color="#f15a24"/></linearGradient><linearGradient id="未命名的渐变_143" x1="399.28" y1="131.46" x2="417.83" y2="131.46" gradientUnits="userSpaceOnUse"><stop offset="0" stop-color="#d9e021"/><stop offset="0.61" stop-color="#fcee21"/></linearGradient><linearGradient id="未命名的渐变_148" x1="399.28" y1="158.38" x2="417.83" y2="158.38" gradientUnits="userSpaceOnUse"><stop offset="0.34" stop-color="#0071bc"/><stop offset="1" stop-color="#0006fb"/><stop offset="1" stop-color="blue"/></linearGradient><linearGradient id="未命名的渐变_155" x1="399.28" y1="187.11" x2="417.83" y2="187.11" gradientUnits="userSpaceOnUse"><stop offset="0" stop-color="#39b54a"/><stop offset="1" stop-color="#056f39"/><stop offset="1" stop-color="#006837"/></linearGradient><clipPath id="clip-path"><rect class="cls-2" x="560.17" y="76" width="110.33" height="108.01"/></clipPath><clipPath id="clip-path-3"><path class="cls-2" d="M615.52,76a2.5,2.5,0,0,0-1.52.4l-52.25,26.23,51.85,23a5.23,5.23,0,0,0,4,0l52.25-23L617.21,76.4a2.52,2.52,0,0,0-1.52-.4Z"/></clipPath><linearGradient id="未命名的渐变_5" x1="-300.46" y1="-29.3" x2="-299.53" y2="-29.3" gradientTransform="matrix(116.11, 0, 0, -116.11, 35455.71, -3300.62)" gradientUnits="userSpaceOnUse"><stop offset="0" stop-color="#cce0f4"/><stop offset="0" stop-color="#c2d7ef"/><stop offset="0" stop-color="#a9bee1"/><stop offset="0.01" stop-color="#7f96cb"/><stop offset="0.01" stop-color="#627abb"/><stop offset="1" stop-color="#335ba9"/></linearGradient><clipPath id="clip-path-5"><rect class="cls-2" x="560.4" y="109.25" width="52.05" height="74.53"/></clipPath><clipPath id="clip-path-7"><path class="cls-2" d="M612.45,132.67v51.11l-50.84-23.22a2.66,2.66,0,0,1-1.21-2V109.25l50.85,21.62a2.3,2.3,0,0,1,1.2,1.8"/></clipPath><mask id="mask" x="523.14" y="83.22" width="126.57" height="126.57" maskUnits="userSpaceOnUse"><rect class="cls-1" x="541.68" y="101.76" width="89.5" height="89.5" transform="translate(68.16 457.58) rotate(-45)"/></mask><linearGradient id="未命名的渐变_2" x1="-297.74" y1="-37.6" x2="-296.8" y2="-37.6" gradientTransform="matrix(55.9, 0, 0, -55.9, 17230.33, -1955.24)" gradientUnits="userSpaceOnUse"><stop offset="0" stop-color="#627abb"/><stop offset="0.65" stop-color="#335ba9"/><stop offset="1" stop-color="#335ba9"/></linearGradient><clipPath id="clip-path-8"><rect class="cls-2" x="618.22" y="108.85" width="52.05" height="74.93"/></clipPath><clipPath id="clip-path-10"><path class="cls-2" d="M670.28,108.85v49.31a3.4,3.4,0,0,1-1.2,2l-50.86,23.62V132.67a2.32,2.32,0,0,1,1.2-1.8Z"/></clipPath><linearGradient id="未命名的渐变_4" x1="-297.77" y1="-37.55" x2="-296.83" y2="-37.55" gradientTransform="matrix(55.91, 0, 0, -55.91, 17273.93, -1953.31)" gradientUnits="userSpaceOnUse"><stop offset="0" stop-color="#627abb"/><stop offset="1" stop-color="#335ba9"/></linearGradient><linearGradient id="未命名的渐变_109-19" x1="313.69" y1="158.41" x2="317.68" y2="158.41" xlink:href="#未命名的渐变_109"/><linearGradient id="未命名的渐变_109-20" x1="319.67" y1="158.59" x2="323.67" y2="158.59" xlink:href="#未命名的渐变_109"/><linearGradient id="未命名的渐变_109-21" x1="325.48" y1="158.59" x2="329.48" y2="158.59" xlink:href="#未命名的渐变_109"/><linearGradient id="新建渐变色板_1" x1="23.4" y1="184" x2="62" y2="184" gradientUnits="userSpaceOnUse"><stop offset="0" stop-color="#cce0f4"/><stop offset="0" stop-color="#c3d7ef"/><stop offset="0" stop-color="#a9bee1"/><stop offset="0.01" stop-color="#8097cb"/><stop offset="0.01" stop-color="#627abb"/><stop offset="1" stop-color="#335ba9"/></linearGradient><linearGradient id="新建渐变色板_1-2" x1="23.4" y1="194.54" y2="194.54" xlink:href="#新建渐变色板_1"/><linearGradient id="新建渐变色板_1-3" x1="23.4" y1="207.42" y2="207.42" xlink:href="#新建渐变色板_1"/><linearGradient id="新建渐变色板_1-4" x1="23.4" y1="220.3" y2="220.3" xlink:href="#新建渐变色板_1"/><linearGradient id="新建渐变色板_1-5" x1="36.24" y1="197.8" x2="38.85" y2="197.8" xlink:href="#新建渐变色板_1"/><linearGradient id="新建渐变色板_1-6" x1="41.4" y1="197.8" x2="44.01" y2="197.8" xlink:href="#新建渐变色板_1"/><linearGradient id="新建渐变色板_1-7" x1="46.55" y1="197.8" x2="49.16" y2="197.8" xlink:href="#新建渐变色板_1"/><clipPath id="clip-path-11"><rect class="cls-2" x="173" y="80" width="49" height="10.12"/></clipPath><clipPath id="clip-path-12"><rect class="cls-2" x="173" y="105" width="49" height="10.12"/></clipPath><clipPath id="clip-path-13"><rect class="cls-2" x="173" y="131" width="49" height="10.12"/></clipPath><clipPath id="clip-path-14"><rect class="cls-2" x="173" y="173" width="49" height="10.12"/></clipPath><clipPath id="clip-path-15"><rect class="cls-2" x="423" y="74" width="49" height="10.12"/></clipPath><clipPath id="clip-path-16"><rect class="cls-2" x="423" y="101" width="49" height="10.12"/></clipPath><clipPath id="clip-path-17"><rect class="cls-2" x="423" y="127" width="49" height="10.12"/></clipPath><clipPath id="clip-path-18"><rect class="cls-2" x="423" y="153" width="49" height="10.12"/></clipPath><clipPath id="clip-path-19"><rect class="cls-2" x="423" y="182" width="49" height="10.12"/></clipPath></defs><title>画板 1</title><g id="图框"><rect class="cls-3" x="160.93" y="13" width="565.64" height="249"/><polyline class="cls-4" points="726.57 256 726.57 262 720.57 262"/><line class="cls-5" x1="708.79" y1="262" x2="172.82" y2="262"/><polyline class="cls-4" points="166.93 262 160.93 262 160.93 256"/><line class="cls-6" x1="160.93" y1="243.53" x2="160.93" y2="25.24"/><polyline class="cls-4" points="160.93 19 160.93 13 166.93 13"/><line class="cls-5" x1="178.71" y1="13" x2="714.68" y2="13"/><polyline class="cls-4" points="720.57 13 726.57 13 726.57 19"/><line class="cls-6" x1="726.57" y1="31.47" x2="726.57" y2="249.76"/><rect class="cls-7" x="173" y="39" width="299" height="183"/><g id="图层_2" data-name="图层 2"><path class="cls-8" d="M32.12,107.73v-5.34a.85.85,0,0,0-.82-.89h-9a.86.86,0,0,0-.89.82v5.41a.85.85,0,0,0,.83.89h9a.86.86,0,0,0,.89-.82Zm0-10.68V91.7a.86.86,0,0,0-.82-.89h-9a.87.87,0,0,0-.89.83v5.41a.87.87,0,0,0,.83.89h9a.86.86,0,0,0,.89-.82v-.07Zm0-10.69V81a.86.86,0,0,0-.82-.89h-9a.87.87,0,0,0-.89.83v5.41a.87.87,0,0,0,.83.89h9a.87.87,0,0,0,.89-.82v-.07Zm14.25-2.77V81a.85.85,0,0,0-.82-.89h-9a.85.85,0,0,0-.89.82v3.16l-4,28.16-9.34-.07a4.46,4.46,0,0,1-4.45-4.47V77.45a4.25,4.25,0,0,1,1.31-3.14A4.31,4.31,0,0,1,22.32,73H59.73a4.47,4.47,0,0,1,4.46,4.46h0v6.23H46.77m13.85,0V81a.85.85,0,0,0-.82-.89h-9a.86.86,0,0,0-.89.83v2.74Z"/></g><g id="图层_1" data-name="图层 1"><path class="cls-9" d="M56.47,104h3.12v5.86l5.07,2.93-1.56,2.7-6.63-3.83V104M35.69,83.24H64.78a4.15,4.15,0,0,1,4.16,4.15h0v12.68a14.55,14.55,0,0,1-20.57,20.58H35.69a4.16,4.16,0,0,1-4.16-4.16V87.4a4.16,4.16,0,0,1,4.16-4.16m0,27v6.24h9.7A14.61,14.61,0,0,1,44,110.26H35.69m0-14.55H48.16V89.48H35.69v6.23m29.09,0V89.48H52.31v6.24H64.78M35.69,106.1H44.6a14.49,14.49,0,0,1,3.76-6.23H35.69v6.23m22.86-5.92a10.07,10.07,0,1,0,3.29.55A10.06,10.06,0,0,0,58.55,100.18Z"/></g><text class="cls-10" transform="translate(284 126)">神经网络</text><text class="cls-11" transform="translate(355 247.88)">DNN深度神经网络</text><circle class="cls-12" cx="232.01" cy="85.08" r="9.26"/><circle class="cls-13" cx="232.01" cy="110.49" r="9.26"/><circle class="cls-14" cx="232.01" cy="135.9" r="9.26"/><circle class="cls-15" cx="232.01" cy="177.64" r="9.26"/><circle class="cls-16" cx="226.57" cy="158.04" r="2"/><circle class="cls-17" cx="232.56" cy="158.22" r="2"/><circle class="cls-18" cx="238.36" cy="158.22" r="2"/><circle class="cls-19" cx="270.67" cy="55.86" r="9.26"/><circle class="cls-20" cx="271.4" cy="81.99" r="9.26"/><circle class="cls-21" cx="271.76" cy="108.49" r="9.26"/><circle class="cls-22" cx="271.76" cy="139.35" r="9.26"/><circle class="cls-23" cx="264.68" cy="158.41" r="2"/><circle class="cls-24" cx="270.67" cy="158.59" r="2"/><circle class="cls-25" cx="276.48" cy="158.59" r="2"/><circle class="cls-26" cx="270.67" cy="177.46" r="9.26"/><circle class="cls-27" cx="270.67" cy="205.41" r="9.26"/><circle class="cls-28" cx="368" cy="55.81" r="9.28"/><circle class="cls-29" cx="368.73" cy="82" r="9.28"/><circle class="cls-30" cx="369.09" cy="108.55" r="9.28"/><circle class="cls-31" cx="369.09" cy="139.47" r="9.28"/><circle class="cls-32" cx="362" cy="158.56" r="2"/><circle class="cls-33" cx="368" cy="158.74" r="2"/><circle class="cls-34" cx="373.82" cy="158.74" r="2"/><circle class="cls-35" cx="368" cy="177.66" r="9.28"/><circle class="cls-36" cx="368" cy="205.66" r="9.28"/><circle class="cls-37" cx="408.56" cy="77.63" r="9.28"/><circle class="cls-38" cx="408.56" cy="104.55" r="9.28"/><circle class="cls-39" cx="408.56" cy="131.46" r="9.28"/><circle class="cls-40" cx="408.56" cy="158.38" r="9.28"/><circle class="cls-41" cx="408.56" cy="187.11" r="9.28"/><line class="cls-42" x1="241.27" y1="83.81" x2="262.69" y2="60.58"/><line class="cls-42" x1="241.27" y1="83.81" x2="262.32" y2="83.45"/><line class="cls-42" x1="241.27" y1="110.31" x2="262.69" y2="110.31"/><line class="cls-42" x1="241.27" y1="110.31" x2="262.32" y2="139.35"/><line class="cls-42" x1="241.27" y1="137.17" x2="262.32" y2="139.35"/><line class="cls-42" x1="241.27" y1="137.17" x2="261.23" y2="177.46"/><line class="cls-42" x1="241.27" y1="110.31" x2="262.32" y2="83.45"/><line class="cls-42" x1="241.27" y1="83.81" x2="262.69" y2="110.31"/><line class="cls-42" x1="241.27" y1="137.17" x2="261.23" y2="205.41"/><line class="cls-42" x1="241.27" y1="83.81" x2="262.32" y2="139.35"/><line class="cls-2" x1="241.27" y1="110.31" x2="261.23" y2="177.46"/><line class="cls-42" x1="241.27" y1="137.17" x2="262.69" y2="110.31"/><line class="cls-42" x1="241.27" y1="84.9" x2="261.23" y2="177.46"/><line class="cls-42" x1="241.27" y1="110.31" x2="261.23" y2="205.41"/><line class="cls-42" x1="241.27" y1="137.17" x2="262.32" y2="83.45"/><line class="cls-42" x1="241.27" y1="110.31" x2="262.69" y2="60.58"/><line class="cls-42" x1="241.27" y1="84.9" x2="261.23" y2="205.41"/><line class="cls-42" x1="241.27" y1="110.31" x2="261.23" y2="177.46"/><line class="cls-42" x1="241.27" y1="137.17" x2="262.69" y2="60.58"/><line class="cls-42" x1="241.27" y1="177.46" x2="261.96" y2="206.87"/><line class="cls-42" x1="241.27" y1="177.83" x2="262.32" y2="139.35"/><line class="cls-42" x1="379.46" y1="55.81" x2="399.47" y2="76.54"/><line class="cls-42" x1="399.47" y1="104.55" x2="379.46" y2="55.81"/><line class="cls-42" x1="399.47" y1="131.46" x2="379.46" y2="55.81"/><line class="cls-42" x1="399.47" y1="158.38" x2="379.46" y2="55.81"/><line class="cls-42" x1="399.47" y1="188.2" x2="379.46" y2="55.81"/><line class="cls-42" x1="399.47" y1="76.54" x2="380.19" y2="82"/><line class="cls-42" x1="399.47" y1="104.55" x2="380.19" y2="82"/><line class="cls-42" x1="399.47" y1="131.46" x2="380.19" y2="82"/><line class="cls-42" x1="399.47" y1="158.38" x2="380.19" y2="82"/><line class="cls-42" x1="399.47" y1="188.2" x2="380.19" y2="82"/><line class="cls-42" x1="399.47" y1="76.54" x2="380.55" y2="108.55"/><line class="cls-42" x1="399.47" y1="104.55" x2="380.55" y2="108.55"/><line class="cls-42" x1="399.47" y1="131.46" x2="380.55" y2="108.55"/><line class="cls-42" x1="399.47" y1="158.38" x2="380.55" y2="108.55"/><line class="cls-42" x1="399.47" y1="187.11" x2="380.55" y2="108.55"/><line class="cls-42" x1="399.47" y1="76.54" x2="380.55" y2="139.47"/><line class="cls-42" x1="399.47" y1="104.55" x2="380.55" y2="139.47"/><line class="cls-42" x1="399.47" y1="131.46" x2="380.55" y2="139.47"/><line class="cls-42" x1="399.47" y1="158.38" x2="380.55" y2="139.47"/><line class="cls-42" x1="399.47" y1="188.2" x2="380.55" y2="139.47"/><line class="cls-42" x1="399.47" y1="77.63" x2="379.46" y2="177.66"/><line class="cls-42" x1="399.47" y1="104.55" x2="379.46" y2="177.66"/><line class="cls-42" x1="399.47" y1="131.46" x2="379.46" y2="177.66"/><line class="cls-42" x1="399.47" y1="158.38" x2="379.46" y2="177.66"/><line class="cls-42" x1="399.47" y1="188.2" x2="379.91" y2="177.83"/><line class="cls-42" x1="399.47" y1="77.63" x2="379.46" y2="205.66"/><line class="cls-42" x1="399.47" y1="104.55" x2="379.1" y2="207.12"/><line class="cls-42" x1="399.47" y1="131.46" x2="379.1" y2="207.12"/><line class="cls-42" x1="399.47" y1="158.38" x2="379.1" y2="207.12"/><line class="cls-42" x1="399.47" y1="188.2" x2="379.1" y2="207.12"/><line class="cls-42" x1="241.27" y1="177.83" x2="261.23" y2="177.46"/><line class="cls-42" x1="241.27" y1="177.83" x2="262.69" y2="110.31"/><line class="cls-42" x1="241.27" y1="177.46" x2="262.5" y2="84.5"/><line class="cls-42" x1="241.27" y1="177.46" x2="262.69" y2="60.58"/><g id="图稿_3" data-name="图稿 3"><g class="cls-43"><g class="cls-43"><g class="cls-44"><rect class="cls-45" x="556.49" y="52.33" width="118.64" height="97.39" transform="translate(31.99 321.44) rotate(-30)"/></g><g class="cls-43"><g class="cls-46"><g class="cls-46"><g class="cls-47"><g class="cls-48"><rect class="cls-49" x="541.68" y="101.76" width="89.5" height="89.5" transform="translate(68.16 457.58) rotate(-45)"/></g></g></g></g><g class="cls-50"><g class="cls-50"><g class="cls-51"><rect class="cls-52" x="599.35" y="101.42" width="89.79" height="89.79" transform="translate(85.24 498.41) rotate(-45)"/></g></g></g></g></g></g></g><circle class="cls-53" cx="315.68" cy="158.41" r="2"/><circle class="cls-54" cx="321.67" cy="158.59" r="2"/><circle class="cls-55" cx="327.48" cy="158.59" r="2"/><polygon class="cls-56" points="611.08 279 617.95 279 617.99 207.62 624 207.62 614.52 188 605 207.62 611.05 207.62 611.08 279"/><polygon class="cls-56" points="684 128.08 684 134.95 746.38 134.99 746.38 141 766 131.52 746.38 122 746.38 128.05 684 128.08"/><path class="cls-57" d="M42.7,193c-11,0-19.3-3.84-19.3-9s8.24-9,19.3-9S62,178.85,62,184,53.69,193,42.7,193Zm0-15.45c-9.89,0-16.76,3.37-16.76,6.46s6.87,6.45,16.76,6.45S59.46,187,59.46,184,52.52,177.54,42.7,177.54Z"/><path class="cls-58" d="M42.7,205.49c-11,0-19.3-3.84-19.3-9V183.59H26V196.5c0,3,6.87,6.45,16.76,6.45s16.76-3.36,16.76-6.45V183.59H62V196.5c0,5.08-8.31,9-19.3,9Z"/><path class="cls-59" d="M42.7,218.34c-11,0-19.3-3.85-19.3-9V196.5H26v12.84c0,3,6.87,6.46,16.76,6.46s16.76-3.37,16.76-6.46V196.5H62v12.84c0,5.15-8.31,9-19.3,9Z"/><path class="cls-60" d="M42.7,231.25c-11,0-19.3-3.85-19.3-9V209.34H26v12.91c0,3,6.87,6.46,16.76,6.46s16.76-3.37,16.76-6.46V209.34H62v12.91c0,5.09-8.31,9-19.3,9"/><rect class="cls-61" x="36.24" y="196.5" width="2.61" height="2.61"/><rect class="cls-62" x="41.4" y="196.5" width="2.61" height="2.61"/><rect class="cls-63" x="46.55" y="196.5" width="2.61" height="2.61"/></g><g id="文字"><text class="cls-10" transform="translate(304.07 309.34)">风险预警</text><text class="cls-10" transform="translate(7 147)">历史数据</text><text class="cls-10" transform="translate(7 255)">实时数据</text><text class="cls-10" transform="translate(101.04 96.1) rotate(0.68)">训练</text><text class="cls-10" transform="translate(596.07 61.34)">模型</text></g><g id="箭头"><polygon class="cls-56" points="80 107.08 80 113.95 154.38 113.99 154.38 120 173 110.52 154.38 101 154.38 107.05 80 107.08"/><g id="图稿_2" data-name="图稿 2"><g class="cls-64"><polygon class="cls-56" points="209.95 80 209.95 83.22 173 83.24 173 86.9 209.95 86.92 209.95 90.12 222 85.07 209.95 80"/></g></g><g id="图稿_2-2" data-name="图稿 2"><g class="cls-65"><polygon class="cls-56" points="209.95 105 209.95 108.22 173 108.24 173 111.9 209.95 111.92 209.95 115.12 222 110.07 209.95 105"/></g></g><g id="图稿_2-3" data-name="图稿 2"><g class="cls-66"><polygon class="cls-56" points="209.95 131 209.95 134.22 173 134.24 173 137.9 209.95 137.92 209.95 141.12 222 136.07 209.95 131"/></g></g><g id="图稿_2-4" data-name="图稿 2"><g class="cls-67"><polygon class="cls-56" points="209.95 173 209.95 176.22 173 176.24 173 179.9 209.95 179.92 209.95 183.12 222 178.07 209.95 173"/></g></g><g id="图稿_2-5" data-name="图稿 2"><g class="cls-68"><polygon class="cls-56" points="459.95 74 459.95 77.22 423 77.24 423 80.9 459.95 80.92 459.95 84.12 472 79.07 459.95 74"/></g></g><g id="图稿_2-6" data-name="图稿 2"><g class="cls-69"><polygon class="cls-56" points="459.95 101 459.95 104.22 423 104.24 423 107.9 459.95 107.92 459.95 111.12 472 106.07 459.95 101"/></g></g><g id="图稿_2-7" data-name="图稿 2"><g class="cls-70"><polygon class="cls-56" points="459.95 127 459.95 130.22 423 130.24 423 133.9 459.95 133.92 459.95 137.12 472 132.07 459.95 127"/></g></g><g id="图稿_2-8" data-name="图稿 2"><g class="cls-71"><polygon class="cls-56" points="459.95 153 459.95 156.22 423 156.24 423 159.9 459.95 159.92 459.95 163.12 472 158.07 459.95 153"/></g></g><g id="图稿_2-9" data-name="图稿 2"><g class="cls-72"><polygon class="cls-56" points="459.95 182 459.95 185.22 423 185.24 423 188.9 459.95 188.92 459.95 192.12 472 187.07 459.95 182"/></g></g><polyline class="cls-56" points="618 278.05 39 278.08 39 284.95 618 284.99"/><polygon class="cls-56" points="479 128.08 479 134.95 532.38 134.99 532.38 141 552 131.52 532.38 122 532.38 128.05 479 128.08"/><polyline class="cls-56" points="45.97 278.52 45.93 263 39.07 263 39.03 278.52"/></g></svg>