<svg id="图层_1" data-name="图层 1" xmlns="http://www.w3.org/2000/svg" xmlns:xlink="http://www.w3.org/1999/xlink" viewBox="0 0 692 229"><defs><style>.cls-1{fill:url(#未命名的渐变_3);}.cls-2{fill:none;}.cls-3{font-size:18px;}.cls-3,.cls-7{font-family:AdobeSongStd-Light-GBpc-EUC-H, Adobe Song Std;}.cls-4{fill:#6392c1;}.cls-5{fill:url(#未命名的渐变_14);}.cls-6{fill:#95c6c6;}.cls-7{font-size:21px;}.cls-8{clip-path:url(#clip-path);}.cls-9{clip-path:url(#clip-path-3);}.cls-10{fill:url(#未命名的渐变_5);}.cls-11{clip-path:url(#clip-path-5);}.cls-12{clip-path:url(#clip-path-7);}.cls-13{mask:url(#mask);}.cls-14{fill:url(#未命名的渐变_2);}.cls-15{clip-path:url(#clip-path-8);}.cls-16{clip-path:url(#clip-path-10);}.cls-17{fill:url(#未命名的渐变_4);}.cls-18{fill:url(#新建渐变色板_1);}.cls-19{fill:url(#新建渐变色板_1-2);}.cls-20{fill:url(#未命名的渐变_93);}.cls-21{fill:url(#未命名的渐变_93-2);}.cls-22{fill:url(#新建渐变色板_1-3);}.cls-23{fill:url(#新建渐变色板_1-4);}.cls-24{fill:url(#新建渐变色板_1-5);}.cls-25{fill:url(#新建渐变色板_1-6);}</style><linearGradient id="未命名的渐变_3" x1="-329.25" y1="-313.62" x2="-328.32" y2="-313.62" gradientTransform="matrix(55.9, 0, 0, -55.9, 18905.05, -17439.86)" gradientUnits="userSpaceOnUse"><stop offset="0" stop-color="#e6e6e6"/><stop offset="0.65" stop-color="#fff"/><stop offset="1" stop-color="#fff"/></linearGradient><linearGradient id="未命名的渐变_14" x1="303.5" y1="50.5" x2="303.5" y2="99.5" gradientUnits="userSpaceOnUse"><stop offset="0" stop-color="#95caec" stop-opacity="0.9"/><stop offset="0.39" stop-color="#8cbde4" stop-opacity="0.92"/><stop offset="1" stop-color="#779bcf" stop-opacity="0.96"/></linearGradient><clipPath id="clip-path"><rect class="cls-2" x="473" y="21" width="110.33" height="108.01"/></clipPath><clipPath id="clip-path-3"><path class="cls-2" d="M528.35,21a2.5,2.5,0,0,0-1.52.4L474.58,47.63l51.85,23a4.18,4.18,0,0,0,2,.4,4.26,4.26,0,0,0,2-.4l52.25-23L530,21.4a2.46,2.46,0,0,0-1.51-.4Z"/></clipPath><linearGradient id="未命名的渐变_5" x1="-329.85" y1="-304.68" x2="-328.92" y2="-304.68" gradientTransform="matrix(116.11, 0, 0, -116.11, 38780.36, -35329.83)" gradientUnits="userSpaceOnUse"><stop offset="0" stop-color="#cce0f4"/><stop offset="0" stop-color="#c2d7ef"/><stop offset="0" stop-color="#a9bee1"/><stop offset="0.01" stop-color="#7f96cb"/><stop offset="0.01" stop-color="#627abb"/><stop offset="1" stop-color="#335ba9"/></linearGradient><clipPath id="clip-path-5"><rect class="cls-2" x="473.23" y="54.25" width="52.05" height="74.53"/></clipPath><clipPath id="clip-path-7"><path class="cls-2" d="M525.28,77.67v51.11l-50.85-23.22a2.68,2.68,0,0,1-1.2-2V54.25l50.85,21.62a2.3,2.3,0,0,1,1.2,1.8"/></clipPath><mask id="mask" x="435.97" y="28.22" width="126.57" height="126.57" maskUnits="userSpaceOnUse"><rect class="cls-1" x="454.5" y="46.76" width="89.5" height="89.5" transform="translate(81.52 379.83) rotate(-45)"/></mask><linearGradient id="未命名的渐变_2" x1="-329.25" y1="-313.62" x2="-328.32" y2="-313.62" gradientTransform="matrix(55.9, 0, 0, -55.9, 18905.05, -17439.86)" gradientUnits="userSpaceOnUse"><stop offset="0" stop-color="#627abb"/><stop offset="0.65" stop-color="#335ba9"/><stop offset="1" stop-color="#335ba9"/></linearGradient><clipPath id="clip-path-8"><rect class="cls-2" x="531.05" y="53.85" width="52.05" height="74.93"/></clipPath><clipPath id="clip-path-10"><path class="cls-2" d="M583.1,53.85v49.31a3.4,3.4,0,0,1-1.2,2l-50.85,23.62V77.67a2.32,2.32,0,0,1,1.2-1.8Z"/></clipPath><linearGradient id="未命名的渐变_4" x1="-329.28" y1="-313.57" x2="-328.35" y2="-313.57" gradientTransform="matrix(55.91, 0, 0, -55.91, 18948.94, -17440.66)" gradientUnits="userSpaceOnUse"><stop offset="0" stop-color="#627abb"/><stop offset="1" stop-color="#335ba9"/></linearGradient><linearGradient id="新建渐变色板_1" x1="140.78" y1="173.62" x2="189.49" y2="173.62" gradientUnits="userSpaceOnUse"><stop offset="0" stop-color="#cce0f4"/><stop offset="0" stop-color="#c3d7ef"/><stop offset="0" stop-color="#a9bee1"/><stop offset="0.01" stop-color="#8097cb"/><stop offset="0.01" stop-color="#627abb"/><stop offset="1" stop-color="#335ba9"/></linearGradient><linearGradient id="新建渐变色板_1-2" x1="147.69" y1="179.67" x2="182.91" y2="179.67" xlink:href="#新建渐变色板_1"/><linearGradient id="未命名的渐变_93" x1="13.87" y1="62.64" x2="60.19" y2="62.64" gradientUnits="userSpaceOnUse"><stop offset="0" stop-color="#627abb"/><stop offset="1" stop-color="#374d98"/></linearGradient><linearGradient id="未命名的渐变_93-2" x1="27.53" y1="74.02" x2="69.1" y2="74.02" xlink:href="#未命名的渐变_93"/><linearGradient id="新建渐变色板_1-3" x1="21.4" y1="156" x2="60" y2="156" xlink:href="#新建渐变色板_1"/><linearGradient id="新建渐变色板_1-4" x1="21.4" y1="166.54" x2="60" y2="166.54" xlink:href="#新建渐变色板_1"/><linearGradient id="新建渐变色板_1-5" x1="21.4" y1="179.42" x2="60" y2="179.42" xlink:href="#新建渐变色板_1"/><linearGradient id="新建渐变色板_1-6" x1="21.4" y1="185.87" x2="60" y2="185.87" xlink:href="#新建渐变色板_1"/></defs><title>画板 1</title><text class="cls-3" transform="translate(311.07 170.34)">趋势预测</text><text class="cls-3" transform="translate(491 17.88)">KNN模型</text><text class="cls-3" transform="translate(396.07 68.34)">训练</text><polygon class="cls-4" points="370 74.08 370 80.95 453.38 80.99 453.38 87 473 77.52 453.38 68 453.38 74.05 370 74.08"/><polygon class="cls-4" points="525.08 181 531.95 181 531.99 147.62 538 147.62 528.52 128 519 147.62 525.05 147.62 525.08 181"/><polyline class="cls-4" points="532 176.05 191 176.08 191 182.95 532 182.99"/><rect class="cls-5" x="237.5" y="50.5" width="132" height="49"/><path class="cls-6" d="M369,51V99H238V51H369m1-1H237v50H370V50Z"/><text class="cls-7" transform="translate(274.26 83.81)">归一化</text><g id="图稿_3" data-name="图稿 3"><g class="cls-8"><g class="cls-8"><g class="cls-9"><rect class="cls-10" x="469.31" y="-2.67" width="118.64" height="97.39" transform="translate(47.81 270.48) rotate(-30)"/></g><g class="cls-8"><g class="cls-11"><g class="cls-11"><g class="cls-12"><g class="cls-13"><rect class="cls-14" x="454.5" y="46.76" width="89.5" height="89.5" transform="translate(81.52 379.83) rotate(-45)"/></g></g></g></g><g class="cls-15"><g class="cls-15"><g class="cls-16"><rect class="cls-17" x="512.18" y="46.42" width="89.79" height="89.79" transform="translate(98.6 420.66) rotate(-45)"/></g></g></g></g></g></g></g><polygon class="cls-4" points="583 74.08 583 80.95 666.38 80.99 666.38 87 686 77.52 666.38 68 666.38 74.05 583 74.08"/><text class="cls-3" transform="translate(141.07 67.34)">数据处理</text><path class="cls-18" d="M189.35,162.22a1.7,1.7,0,0,0-.17-.54l-5.74-12.63-.06-.14v0l0,0A1.58,1.58,0,0,0,182,148H148.41a1.59,1.59,0,0,0-.94.34.67.67,0,0,0-.14.09c-.05,0-.09.11-.14.17a1.68,1.68,0,0,0-.24.28l-5.8,12.8a1.63,1.63,0,0,0-.13.39,1.56,1.56,0,0,0-.24.79v34.78a1.6,1.6,0,0,0,1.6,1.6h45.51a1.6,1.6,0,0,0,1.6-1.6V162.87a1.62,1.62,0,0,0-.14-.65Zm-39.94-11h31.5l4.63,10.08H144.78l4.64-10.08ZM144,164.46H186.3v31.59H144V164.46Z"/><path class="cls-19" d="M182.54,171.27a1.67,1.67,0,0,0-2.35-.23h0l-11.55,9.47-5.46-5.09a2.14,2.14,0,0,0-.32-.2l-.12-.07a1.42,1.42,0,0,0-.4-.12l-.25,0a1.43,1.43,0,0,0-.29,0,1.24,1.24,0,0,0-.38.09l-.14.07a1.62,1.62,0,0,0-.32.17L148.3,185.73a1.67,1.67,0,0,0,2.11,2.58L162,178.83l5.46,5.09a1.61,1.61,0,0,0,.33.2l.11.07a1.42,1.42,0,0,0,.4.12,1.17,1.17,0,0,0,.26,0l.27,0a2.59,2.59,0,0,0,.4-.09l.13-.08a1.48,1.48,0,0,0,.33-.17l12.65-10.38a1.67,1.67,0,0,0,.24-2.34Z"/><text class="cls-3" transform="translate(113 223)">回归预测模型</text><text class="cls-3" transform="translate(152.7 119.71) rotate(-90)">拟合</text><text class="cls-3" transform="translate(81 167)">预测</text><polygon class="cls-4" points="72 73.08 72 79.95 218.38 79.99 218.38 86 237 76.52 218.38 67 218.38 73.05 72 73.08"/><g id="图层_2" data-name="图层 2"><path class="cls-20" d="M28.12,77.73V72.39a.85.85,0,0,0-.82-.89h-9a.86.86,0,0,0-.89.82v5.41a.85.85,0,0,0,.83.89h9a.86.86,0,0,0,.89-.82Zm0-10.68V61.7a.86.86,0,0,0-.82-.89h-9a.87.87,0,0,0-.89.83v5.41a.87.87,0,0,0,.83.89h9a.86.86,0,0,0,.89-.82v-.07Zm0-10.69V51a.86.86,0,0,0-.82-.89h-9a.87.87,0,0,0-.89.83v5.41a.87.87,0,0,0,.83.89h9a.87.87,0,0,0,.89-.82v-.07Zm14.25-2.77V51a.85.85,0,0,0-.82-.89h-9a.85.85,0,0,0-.89.82v3.16l-4,28.16-9.34-.07a4.46,4.46,0,0,1-4.45-4.47V47.45a4.25,4.25,0,0,1,1.31-3.14A4.31,4.31,0,0,1,18.32,43H55.73a4.47,4.47,0,0,1,4.46,4.46h0v6.23H42.77m13.85,0V51a.85.85,0,0,0-.82-.89h-9a.86.86,0,0,0-.89.83v2.74Z"/></g><g id="图层_1-2" data-name="图层 1"><path class="cls-21" d="M52.47,74h3.12v5.86l5.07,2.93-1.56,2.7-6.63-3.83V74M31.69,53.24H60.78a4.15,4.15,0,0,1,4.16,4.15h0V70.07A14.55,14.55,0,0,1,44.37,90.65H31.69a4.16,4.16,0,0,1-4.16-4.16V57.4a4.16,4.16,0,0,1,4.16-4.16m0,27V86.5h9.7A14.61,14.61,0,0,1,40,80.26H31.69m0-14.55H44.16V59.48H31.69v6.23m29.09,0V59.48H48.31v6.24H60.78M31.69,76.1H40.6a14.49,14.49,0,0,1,3.76-6.23H31.69V76.1m22.86-5.92a10.07,10.07,0,1,0,3.29.55A10.06,10.06,0,0,0,54.55,70.18Z"/></g><text class="cls-3" transform="translate(3 117)">历史数据</text><text class="cls-3" transform="translate(5 224)">实时数据</text><polygon class="cls-4" points="168.92 80 162.05 80 162.01 128.38 156 128.38 165.48 148 175 128.38 168.95 128.38 168.92 80"/><path class="cls-22" d="M40.7,165c-11,0-19.3-3.84-19.3-9s8.24-9,19.3-9S60,150.85,60,156,51.69,165,40.7,165Zm0-15.45c-9.89,0-16.76,3.37-16.76,6.46s6.87,6.45,16.76,6.45S57.46,159,57.46,156,50.52,149.54,40.7,149.54Z"/><path class="cls-23" d="M40.7,177.49c-11,0-19.3-3.84-19.3-9V155.59H24V168.5c0,3,6.87,6.45,16.76,6.45s16.76-3.36,16.76-6.45V155.59H60V168.5c0,5.08-8.31,9-19.3,9Z"/><path class="cls-24" d="M40.7,190.34c-11,0-19.3-3.85-19.3-9V168.5H24v12.84c0,3,6.87,6.46,16.76,6.46s16.76-3.37,16.76-6.46V168.5H60v12.84c0,5.15-8.31,9-19.3,9Z"/><path class="cls-25" d="M40.7,203.25c-11,0-19.3-3.85-19.3-9V181.34H24v12.91c0,3,6.87,6.46,16.76,6.46s16.76-3.37,16.76-6.46V181.34H60v12.91c0,5.09-8.31,9-19.3,9ZM34.24,168.5h2.61v2.61H34.24Zm5.16,0H42v2.61H39.4Zm5.15,0h2.61v2.61H44.55Z"/><polygon class="cls-4" points="64 176.08 64 182.95 122.38 182.99 122.38 189 141 179.52 122.38 170 122.38 176.05 64 176.08"/></svg>