<svg id="图层_1" data-name="图层 1" xmlns="http://www.w3.org/2000/svg" xmlns:xlink="http://www.w3.org/1999/xlink" viewBox="0 0 630 230"><defs><style>.cls-1{fill:url(#未命名的渐变_3);}.cls-2{fill:none;}.cls-3{fill:url(#未命名的渐变_9);}.cls-4{fill:#95c6c6;}.cls-5{font-size:18px;}.cls-23,.cls-5{font-family:AdobeSongStd-Light-GBpc-EUC-H, Adobe Song Std;}.cls-6{fill:url(#未命名的渐变_93);}.cls-7{fill:url(#未命名的渐变_93-2);}.cls-8{fill:url(#新建渐变色板_1);}.cls-9{fill:url(#新建渐变色板_1-2);}.cls-10{fill:url(#新建渐变色板_1-3);}.cls-11{fill:url(#新建渐变色板_1-4);}.cls-12{fill:#6392c1;}.cls-13{clip-path:url(#clip-path);}.cls-14{clip-path:url(#clip-path-3);}.cls-15{fill:url(#未命名的渐变_5);}.cls-16{clip-path:url(#clip-path-5);}.cls-17{clip-path:url(#clip-path-7);}.cls-18{mask:url(#mask);}.cls-19{fill:url(#未命名的渐变_2);}.cls-20{clip-path:url(#clip-path-8);}.cls-21{clip-path:url(#clip-path-10);}.cls-22{fill:url(#未命名的渐变_4);}.cls-23{font-size:21px;}</style><linearGradient id="未命名的渐变_3" x1="-406.9" y1="-218.75" x2="-405.97" y2="-218.75" gradientTransform="matrix(55.9, 0, 0, -55.9, 23185.49, -12130.47)" gradientUnits="userSpaceOnUse"><stop offset="0" stop-color="#e6e6e6"/><stop offset="0.65" stop-color="#fff"/><stop offset="1" stop-color="#fff"/></linearGradient><linearGradient id="未命名的渐变_9" x1="242.5" y1="58.5" x2="242.5" y2="107.5" gradientUnits="userSpaceOnUse"><stop offset="0" stop-color="#95caec" stop-opacity="0.9"/><stop offset="0.39" stop-color="#8cbde4" stop-opacity="0.92"/><stop offset="1" stop-color="#779bcf" stop-opacity="0.96"/></linearGradient><linearGradient id="未命名的渐变_93" x1="16.87" y1="62.64" x2="63.19" y2="62.64" gradientUnits="userSpaceOnUse"><stop offset="0" stop-color="#627abb"/><stop offset="1" stop-color="#374d98"/></linearGradient><linearGradient id="未命名的渐变_93-2" x1="30.53" y1="74.02" x2="72.1" y2="74.02" xlink:href="#未命名的渐变_93"/><linearGradient id="新建渐变色板_1" x1="24.4" y1="149" x2="63" y2="149" gradientUnits="userSpaceOnUse"><stop offset="0" stop-color="#cce0f4"/><stop offset="0" stop-color="#c3d7ef"/><stop offset="0" stop-color="#a9bee1"/><stop offset="0.01" stop-color="#8097cb"/><stop offset="0.01" stop-color="#627abb"/><stop offset="1" stop-color="#335ba9"/></linearGradient><linearGradient id="新建渐变色板_1-2" x1="24.4" y1="159.54" y2="159.54" xlink:href="#新建渐变色板_1"/><linearGradient id="新建渐变色板_1-3" x1="24.4" y1="172.42" y2="172.42" xlink:href="#新建渐变色板_1"/><linearGradient id="新建渐变色板_1-4" x1="24.4" y1="178.87" y2="178.87" xlink:href="#新建渐变色板_1"/><clipPath id="clip-path"><rect class="cls-2" x="413" y="27" width="110.33" height="108.01"/></clipPath><clipPath id="clip-path-3"><path class="cls-2" d="M468.35,27a2.5,2.5,0,0,0-1.52.4L414.58,53.63l51.85,23a4.18,4.18,0,0,0,2,.4,4.26,4.26,0,0,0,2-.4l52.25-23L470,27.4a2.46,2.46,0,0,0-1.51-.4Z"/></clipPath><linearGradient id="未命名的渐变_5" x1="-408.33" y1="-210.1" x2="-407.4" y2="-210.1" gradientTransform="matrix(116.11, 0, 0, -116.11, 47832.6, -24342.78)" gradientUnits="userSpaceOnUse"><stop offset="0" stop-color="#cce0f4"/><stop offset="0" stop-color="#c2d7ef"/><stop offset="0" stop-color="#a9bee1"/><stop offset="0.01" stop-color="#7f96cb"/><stop offset="0.01" stop-color="#627abb"/><stop offset="1" stop-color="#335ba9"/></linearGradient><clipPath id="clip-path-5"><rect class="cls-2" x="413.23" y="60.25" width="52.05" height="74.53"/></clipPath><clipPath id="clip-path-7"><path class="cls-2" d="M465.28,83.67v51.11l-50.85-23.22a2.68,2.68,0,0,1-1.2-2V60.25l50.85,21.62a2.3,2.3,0,0,1,1.2,1.8"/></clipPath><mask id="mask" x="375.97" y="34.22" width="126.57" height="126.57" maskUnits="userSpaceOnUse"><rect class="cls-1" x="394.5" y="52.76" width="89.5" height="89.5" transform="translate(59.7 339.16) rotate(-45)"/></mask><linearGradient id="未命名的渐变_2" x1="-406.9" y1="-218.75" x2="-405.97" y2="-218.75" gradientTransform="matrix(55.9, 0, 0, -55.9, 23185.49, -12130.47)" gradientUnits="userSpaceOnUse"><stop offset="0" stop-color="#627abb"/><stop offset="0.65" stop-color="#335ba9"/><stop offset="1" stop-color="#335ba9"/></linearGradient><clipPath id="clip-path-8"><rect class="cls-2" x="471.05" y="59.85" width="52.05" height="74.93"/></clipPath><clipPath id="clip-path-10"><path class="cls-2" d="M523.1,59.85v49.31a3.4,3.4,0,0,1-1.2,2l-50.85,23.62V83.67a2.32,2.32,0,0,1,1.2-1.8Z"/></clipPath><linearGradient id="未命名的渐变_4" x1="-406.93" y1="-218.7" x2="-406" y2="-218.7" gradientTransform="matrix(55.91, 0, 0, -55.91, 23230.16, -12130.33)" gradientUnits="userSpaceOnUse"><stop offset="0" stop-color="#627abb"/><stop offset="1" stop-color="#335ba9"/></linearGradient></defs><title>画板 1</title><rect class="cls-3" x="176.5" y="58.5" width="132" height="49"/><path class="cls-4" d="M308,59v48H177V59H308m1-1H176v50H309V58Z"/><text class="cls-5" transform="translate(209.07 172.34)">风险预警</text><text class="cls-5" transform="translate(80.07 74.34)">数据处理</text><text class="cls-5" transform="translate(431 24.88)">KNN模型</text><text class="cls-5" transform="translate(336.07 74.34)">训练</text><g id="图层_2" data-name="图层 2"><path class="cls-6" d="M31.12,77.73V72.39a.85.85,0,0,0-.82-.89h-9a.86.86,0,0,0-.89.82v5.41a.85.85,0,0,0,.83.89h9a.86.86,0,0,0,.89-.82Zm0-10.68V61.7a.86.86,0,0,0-.82-.89h-9a.87.87,0,0,0-.89.83v5.41a.87.87,0,0,0,.83.89h9a.86.86,0,0,0,.89-.82v-.07Zm0-10.69V51a.86.86,0,0,0-.82-.89h-9a.87.87,0,0,0-.89.83v5.41a.87.87,0,0,0,.83.89h9a.87.87,0,0,0,.89-.82v-.07Zm14.25-2.77V51a.85.85,0,0,0-.82-.89h-9a.85.85,0,0,0-.89.82v3.16l-4,28.16-9.34-.07a4.46,4.46,0,0,1-4.45-4.47V47.45a4.25,4.25,0,0,1,1.31-3.14A4.31,4.31,0,0,1,21.32,43H58.73a4.47,4.47,0,0,1,4.46,4.46h0v6.23H45.77m13.85,0V51a.85.85,0,0,0-.82-.89h-9a.86.86,0,0,0-.89.83v2.74Z"/></g><g id="图层_1-2" data-name="图层 1"><path class="cls-7" d="M55.47,74h3.12v5.86l5.07,2.93-1.56,2.7-6.63-3.83V74M34.69,53.24H63.78a4.15,4.15,0,0,1,4.16,4.15h0V70.07A14.55,14.55,0,0,1,47.37,90.65H34.69a4.16,4.16,0,0,1-4.16-4.16V57.4a4.16,4.16,0,0,1,4.16-4.16m0,27V86.5h9.7A14.61,14.61,0,0,1,43,80.26H34.69m0-14.55H47.16V59.48H34.69v6.23m29.09,0V59.48H51.31v6.24H63.78M34.69,76.1H43.6a14.49,14.49,0,0,1,3.76-6.23H34.69V76.1m22.86-5.92a10.07,10.07,0,1,0,3.29.55A10.06,10.06,0,0,0,57.55,70.18Z"/></g><path class="cls-8" d="M43.7,158c-11,0-19.3-3.84-19.3-9s8.24-9,19.3-9S63,143.85,63,149,54.69,158,43.7,158Zm0-15.45c-9.89,0-16.76,3.37-16.76,6.46s6.87,6.45,16.76,6.45S60.46,152,60.46,149,53.52,142.54,43.7,142.54Z"/><path class="cls-9" d="M43.7,170.49c-11,0-19.3-3.84-19.3-9V148.59H27V161.5c0,3,6.87,6.45,16.76,6.45s16.76-3.36,16.76-6.45V148.59H63V161.5c0,5.08-8.31,9-19.3,9Z"/><path class="cls-10" d="M43.7,183.34c-11,0-19.3-3.85-19.3-9V161.5H27v12.84c0,3,6.87,6.46,16.76,6.46s16.76-3.37,16.76-6.46V161.5H63v12.84c0,5.15-8.31,9-19.3,9Z"/><path class="cls-11" d="M43.7,196.25c-11,0-19.3-3.85-19.3-9V174.34H27v12.91c0,3,6.87,6.46,16.76,6.46s16.76-3.37,16.76-6.46V174.34H63v12.91c0,5.09-8.31,9-19.3,9ZM37.24,161.5h2.61v2.61H37.24Zm5.16,0H45v2.61H42.4Zm5.15,0h2.61v2.61H47.55Z"/><text class="cls-5" transform="translate(6 117)">历史数据</text><text class="cls-5" transform="translate(6 221)">实时数据</text><polygon class="cls-12" points="310 80.08 310 86.95 393.38 86.99 393.38 93 413 83.52 393.38 74 393.38 80.05 310 80.08"/><polygon class="cls-12" points="465.08 187 471.95 187 471.99 153.62 478 153.62 468.52 134 459 153.62 465.05 153.62 465.08 187"/><polyline class="cls-12" points="472 180.05 74 180.08 74 186.95 472 186.99"/><g id="图稿_3" data-name="图稿 3"><g class="cls-13"><g class="cls-13"><g class="cls-14"><rect class="cls-15" x="409.31" y="3.33" width="118.64" height="97.39" transform="translate(36.77 241.29) rotate(-30)"/></g><g class="cls-13"><g class="cls-16"><g class="cls-16"><g class="cls-17"><g class="cls-18"><rect class="cls-19" x="394.5" y="52.76" width="89.5" height="89.5" transform="translate(59.7 339.16) rotate(-45)"/></g></g></g></g><g class="cls-20"><g class="cls-20"><g class="cls-21"><rect class="cls-22" x="452.18" y="52.42" width="89.79" height="89.79" transform="translate(76.78 379.99) rotate(-45)"/></g></g></g></g></g></g></g><polygon class="cls-12" points="74 80.08 74 86.95 157.38 86.99 157.38 93 177 83.52 157.38 74 157.38 80.05 74 80.08"/><polygon class="cls-12" points="523 80.08 523 86.95 606.38 86.99 606.38 93 626 83.52 606.38 74 606.38 80.05 523 80.08"/><text class="cls-23" transform="translate(213.26 91.81)">归一化</text></svg>