<svg id="processonSvg1000" xmlns="http://www.w3.org/2000/svg" xmlns:xlink="http://www.w3.org/1999/xlink" viewBox="0 0 1170.89 519.83"><defs><style>.cls-1{fill:none;}.cls-2{fill:url(#未命名的渐变);}.cls-23,.cls-26,.cls-3,.cls-7,.cls-9{isolation:isolate;}.cls-3{font-size:21px;}.cls-23,.cls-3,.cls-7,.cls-9{font-family:AdobeSongStd-Light-GBpc-EUC-H, Adobe Song Std;}.cls-4{fill:url(#未命名的渐变_2);}.cls-21,.cls-5{fill:#e5e5e5;stroke-dasharray:5 2;}.cls-5{stroke:#323232;}.cls-6{fill:url(#ProcessOnPattern1027);}.cls-7{font-size:14.52px;}.cls-8{fill:url(#未命名的渐变_3);}.cls-9{font-size:24px;}.cls-10{fill:url(#未命名的渐变_4);}.cls-11{fill:url(#未命名的渐变_5);}.cls-12{fill:url(#未命名的渐变_6);}.cls-13{fill:url(#未命名的渐变_7);}.cls-14{fill:url(#未命名的渐变_8);}.cls-15{fill:url(#未命名的渐变_9);}.cls-16{fill:#fff;}.cls-17{fill:#444;}.cls-18{fill:#115193;}.cls-19{fill:#96bf3d;}.cls-20{fill:url(#未命名的渐变_10);}.cls-21{stroke:#000;}.cls-22{fill:url(#未命名的渐变_11);}.cls-23,.cls-26{font-size:20px;}.cls-24{fill:url(#未命名的渐变_12);}.cls-25{fill:url(#未命名的渐变_13);}.cls-26{font-family:ArialMT, Arial;}.cls-27{fill:url(#未命名的渐变_14);}.cls-28{fill:#5789f1;}.cls-29{fill:#e83a37;}.cls-30{fill:#2f318e;}.cls-31{fill:#f5c53a;}</style><linearGradient id="未命名的渐变" x1="277.71" y1="654.96" x2="277.31" y2="653.96" gradientTransform="matrix(137, 0, 0, -66, -37944.79, 43313.89)" gradientUnits="userSpaceOnUse"><stop offset="0" stop-color="#cce5ff"/><stop offset="1" stop-color="#8daee3"/></linearGradient><linearGradient id="未命名的渐变_2" x1="277.71" y1="654.96" x2="277.31" y2="653.96" gradientTransform="matrix(137, 0, 0, -66, -37944.79, 43455.89)" xlink:href="#未命名的渐变"/><pattern id="ProcessOnPattern1027" data-name="ProcessOnPattern1027" width="33.5" height="29" patternTransform="matrix(1, 0, 0, -1, 352, 585.5)" patternUnits="userSpaceOnUse" viewBox="0 0 33.5 29"><rect class="cls-1" width="33.5" height="29"/></pattern><linearGradient id="未命名的渐变_3" x1="278.85" y1="655.03" x2="278.45" y2="654.03" gradientTransform="matrix(221.25, 0, 0, -74, -61272.5, 48664.85)" gradientUnits="userSpaceOnUse"><stop offset="0" stop-color="#fde69f"/><stop offset="1" stop-color="#fff"/></linearGradient><linearGradient id="未命名的渐变_4" x1="278.85" y1="655.03" x2="278.45" y2="654.03" gradientTransform="matrix(221.25, 0, 0, -74, -61272.5, 48770.85)" gradientUnits="userSpaceOnUse"><stop offset="0" stop-color="#b6dea5"/><stop offset="1" stop-color="#fff"/></linearGradient><linearGradient id="未命名的渐变_5" x1="277.71" y1="654.96" x2="277.31" y2="653.96" gradientTransform="matrix(137, 0, 0, -66, -37724.29, 43238.89)" xlink:href="#未命名的渐变"/><linearGradient id="未命名的渐变_6" x1="277.71" y1="654.96" x2="277.31" y2="653.96" gradientTransform="matrix(137, 0, 0, -66, -37549.29, 43238.89)" xlink:href="#未命名的渐变"/><linearGradient id="未命名的渐变_7" x1="277.71" y1="654.96" x2="277.31" y2="653.96" gradientTransform="matrix(137, 0, 0, -66, -37724.29, 43676.64)" xlink:href="#未命名的渐变"/><linearGradient id="未命名的渐变_8" x1="277.71" y1="654.96" x2="277.31" y2="653.96" gradientTransform="matrix(137, 0, 0, -66, -37549.29, 43676.64)" xlink:href="#未命名的渐变"/><linearGradient id="未命名的渐变_9" x1="277.34" y1="655.51" x2="277.34" y2="654.51" gradientTransform="matrix(128.5, 0, 0, -203, -34885.93, 133224.41)" xlink:href="#未命名的渐变"/><linearGradient id="未命名的渐变_10" x1="278.85" y1="655.03" x2="278.45" y2="654.03" gradientTransform="matrix(221.25, 0, 0, -74, -60640.28, 48767.11)" xlink:href="#未命名的渐变_4"/><linearGradient id="未命名的渐变_11" x1="277.07" y1="654.61" x2="276.67" y2="653.61" gradientTransform="matrix(112.9, 0, 0, -44.41, -30471.78, 29524.55)" xlink:href="#未命名的渐变_4"/><linearGradient id="未命名的渐变_12" x1="277.07" y1="654.61" x2="276.67" y2="653.61" gradientTransform="matrix(112.9, 0, 0, -44.41, -30335.78, 29524.64)" xlink:href="#未命名的渐变_4"/><linearGradient id="未命名的渐变_13" x1="277.07" y1="654.61" x2="276.67" y2="653.61" gradientTransform="matrix(112.9, 0, 0, -44.41, -30204.58, 29524.94)" xlink:href="#未命名的渐变_4"/><linearGradient id="未命名的渐变_14" x1="277.07" y1="654.61" x2="276.67" y2="653.61" gradientTransform="matrix(112.9, 0, 0, -44.41, -30606.44, 29524.92)" xlink:href="#未命名的渐变_4"/></defs><title>画板 1</title><path id="ProcessOnPath1003" class="cls-1" d="M-11-59.26h1193V577.49H-11Z"/><g id="ProcessOnG1005"><path id="ProcessOnPath1006" class="cls-2" d="M9,82.24H146v66H9Z"/><g id="ProcessOnG1010"><text id="ProcessOnText1011" class="cls-3" transform="translate(14.54 121.64)">地质背景研究</text></g></g><g id="ProcessOnG1014"><path id="ProcessOnPath1015" class="cls-4" d="M9,224.24H146v66H9Z"/><g id="ProcessOnG1019"><text id="ProcessOnText1020" class="cls-3" transform="translate(14.54 263.64)">灾害发育特征</text></g></g><g id="ProcessOnG1021"><path id="ProcessOnPath1022" class="cls-5" d="M223,117.24H548v280H223Z"/></g><g id="ProcessOnG1025"><path id="ProcessOnPath1026" class="cls-6" d="M263.54,136.24H297v29h-33.5Z"/></g><g id="ProcessOnG1029"><path id="ProcessOnPath1030" class="cls-1" d="M245,128.74H405v40H245Z"/><g id="ProcessOnG1031"><text id="ProcessOnText1032" class="cls-7" transform="translate(297.54 156.43)">数值模拟</text></g></g><g id="ProcessOnG1033"><path id="ProcessOnPath1034" class="cls-8" d="M274.92,187.24H496.17v74H274.92Z"/><g id="ProcessOnG1038"><text id="ProcessOnText1039" class="cls-9" transform="translate(340.54 233.24)">降雨研究</text></g></g><g id="ProcessOnG1040"><path id="ProcessOnPath1041" class="cls-10" d="M274.92,293.24H496.17v74H274.92Z"/><g id="ProcessOnG1045"><text id="ProcessOnText1046" class="cls-9" transform="translate(336.54 338.24)">变形研究</text></g></g><g id="ProcessOnG1047"><path id="ProcessOnPath1048" class="cls-11" d="M229.54,7.24h137v66h-137Z"/><g id="ProcessOnG1052"><text id="ProcessOnText1053" class="cls-3" transform="translate(255.04 45.64)">历史雨量</text></g></g><g id="ProcessOnG1054"><path id="ProcessOnPath1055" class="cls-12" d="M404.54,7.24h137v66h-137Z"/><g id="ProcessOnG1059"><text id="ProcessOnText1060" class="cls-3" transform="translate(441.54 46.64)">基准值</text></g></g><g id="ProcessOnG1071"><path id="ProcessOnPath1072" class="cls-13" d="M229.54,445h137v66h-137Z"/><g id="ProcessOnG1076"><text id="ProcessOnText1077" class="cls-3" transform="translate(254.04 484.39)">最大变形</text></g></g><g id="ProcessOnG1078"><path id="ProcessOnPath1079" class="cls-14" d="M404.54,445h137v66h-137Z"/><g id="ProcessOnG1083"><text id="ProcessOnText1084" class="cls-3" transform="translate(444.54 484.39)">切线角</text></g></g><g id="ProcessOnG1087"><path id="ProcessOnPath1088" class="cls-15" d="M687.54,155.74H816v203H687.54Z"/><g id="ProcessOnG1092"><text id="ProcessOnText1093" class="cls-9" transform="translate(705.79 263.64)">阈值权重</text></g></g><g id="ProcessOnG1096"><path id="ProcessOnPath1097" class="cls-1" d="M926,174.24h160v40H926Z"/><g id="ProcessOnG1098"><text id="ProcessOnText1099" class="cls-9" transform="translate(953.04 199.24)">综合预警模型</text></g></g><g id="ProcessOnG1100"><g id="ProcessOnG1102"><g id="Layer_1" data-name="Layer 1"><polygon class="cls-16" points="1019.29 170.63 1069.71 141.48 1069.71 83.18 1019.29 112.33 1019.29 170.63"/><polygon class="cls-16" points="968.88 141.32 1019.29 170.47 1019.29 112.33 968.88 83.18 968.88 141.32"/><polygon class="cls-16" points="1069.39 83.18 1019.29 54.19 969.2 83.18 1019.29 112.17 1069.39 83.18"/><polygon class="cls-16" points="1019.29 110.39 1066.53 83.18 1066.37 83.18 1019.29 110.39"/><polygon class="cls-16" points="972.22 83.18 972.06 83.18 1019.29 110.39 1019.29 110.39 972.22 83.18"/><path class="cls-17" d="M1069.71,81.24l-50.42-29-50.41,29-1.59,1v60.24l50.41,29.15,1.59,1,1.59-1,50.42-29.16V82.21Zm-1.59,59.27-47.24,27.21V113.14l47.24-27.21Zm-50.42,27.21-47.23-27.21V85.93l47.23,27.21ZM972.22,83.18,1019.29,56l47.08,27.21h0l-47.08,27.21h0L972.22,83.18Z"/><polygon class="cls-18" points="1019.45 143.75 1046.65 128.04 1046.65 96.78 1019.45 112.49 1019.45 143.75"/><polygon class="cls-18" points="991.94 128.04 1019.13 143.75 1019.13 112.49 991.94 96.78 991.94 128.04"/><polygon class="cls-18" points="1046.33 96.46 1019.29 80.75 992.26 96.46 1019.29 112.01 1046.33 96.46"/><polygon class="cls-19" points="1019.29 110.39 1043.63 96.46 1043.63 96.46 1019.29 110.39"/><polygon class="cls-19" points="994.96 96.46 994.96 96.46 1019.29 110.39 1019.29 110.39 994.96 96.46"/><path class="cls-16" d="M1046.81,94.52l-27.52-15.88L991.78,94.52l-1.59,1v33.68L1017.7,145l1.59,1,1.59-1,27.52-15.87V95.33Zm-1.59,32.71-24.34,14.09v-28l24.34-14.09Zm-27.52,14.09-24.33-14.09v-28l24.33,14.09ZM995,96.46l24.33-14.09,24.34,13.93h0l-24.34,14.09h0L995,96.46Z"/></g></g></g><g id="ProcessOnG1103"><path id="ProcessOnPath1104" class="cls-20" d="M907.14,289.5h221.25v74H907.14Z"/><g id="ProcessOnG1108"><text id="ProcessOnText1109" class="cls-9" transform="translate(960.26 333.5)">数据预处理</text></g></g><g id="ProcessOnG1112"><path id="ProcessOnPath1113" class="cls-21" d="M586.71,427.84h545.35v86.45H586.71Z"/></g><g id="ProcessOnG1114"><path id="ProcessOnPath1115" class="cls-22" d="M733.81,452.13h112.9v44.4H733.81Z"/><g id="ProcessOnG1119"><text id="ProcessOnText1120" class="cls-23" transform="translate(774.26 482.33)">位移</text></g></g><g id="ProcessOnG1121"><path id="ProcessOnPath1122" class="cls-24" d="M869.81,452.22h112.9v44.41H869.81Z"/><g id="ProcessOnG1126"><text id="ProcessOnText1127" class="cls-23" transform="translate(902.76 482.43)">土压力</text></g></g><g id="ProcessOnG1128"><path id="ProcessOnPath1129" class="cls-25" d="M1001,452.52h112.9v44.41H1001Z"/><g id="ProcessOnG1133"><text id="ProcessOnText1134" class="cls-26" transform="translate(1039.78 476.73)">......</text></g></g><g id="ProcessOnG1135"><path id="ProcessOnPath1136" class="cls-27" d="M599.14,452.5H712v44.41H599.14Z"/><g id="ProcessOnG1140"><text id="ProcessOnText1141" class="cls-23" transform="translate(639.59 482.71)">雨量</text></g></g><g id="ProcessOnG1064"><path id="ProcessOnPath1065" class="cls-28" d="M73.72,148.24h7.65V213h7.42L77.54,224.24,66.29,213h7.43Z"/></g><g id="ProcessOnG1064-2" data-name="ProcessOnG1064"><path id="ProcessOnPath1065-2" data-name="ProcessOnPath1065" class="cls-28" d="M381.72,97.24h7.65V175h7.42l-11.25,11.25L374.29,175h7.43Z"/></g><g id="ProcessOnG1064-3" data-name="ProcessOnG1064"><path id="ProcessOnPath1065-3" data-name="ProcessOnPath1065" class="cls-28" d="M473,97.24H297V89.59H473"/></g><g id="ProcessOnG1064-4" data-name="ProcessOnG1064"><path id="ProcessOnPath1065-4" data-name="ProcessOnPath1065" class="cls-28" d="M479.6,72.74v24.5H472V72.74"/></g><g id="ProcessOnG1064-5" data-name="ProcessOnG1064"><path id="ProcessOnPath1065-5" data-name="ProcessOnPath1065" class="cls-28" d="M299,72.74v24.5h-7.65V72.74"/></g><g id="ProcessOnG1064-6" data-name="ProcessOnG1064"><path id="ProcessOnPath1065-6" data-name="ProcessOnPath1065" class="cls-28" d="M146,260.07v-7.65h64.75V245L222,256.24l-11.25,11.25v-7.42Z"/></g><g id="ProcessOnG1064-7" data-name="ProcessOnG1064"><path id="ProcessOnPath1065-7" data-name="ProcessOnPath1065" class="cls-28" d="M548.3,260.07v-7.65H675.05V245l11.25,11.25-11.25,11.25v-7.42Z"/></g><g id="ProcessOnG1064-8" data-name="ProcessOnG1064"><path id="ProcessOnPath1065-8" data-name="ProcessOnPath1065" class="cls-28" d="M389.32,420.24h-7.65V378.49h-7.43l11.25-11.25,11.25,11.25h-7.42Z"/></g><g id="ProcessOnG1064-9" data-name="ProcessOnG1064"><path id="ProcessOnPath1065-9" data-name="ProcessOnPath1065" class="cls-28" d="M298,420.24H474v7.65H298"/></g><g id="ProcessOnG1064-10" data-name="ProcessOnG1064"><path id="ProcessOnPath1065-10" data-name="ProcessOnPath1065" class="cls-28" d="M291.44,444.75V420.24h7.65v24.51"/></g><g id="ProcessOnG1064-11" data-name="ProcessOnG1064"><path id="ProcessOnPath1065-11" data-name="ProcessOnPath1065" class="cls-28" d="M472,444.75V420.24h7.65v24.51"/></g><g id="ProcessOnG1064-12" data-name="ProcessOnG1064"><path id="ProcessOnPath1065-12" data-name="ProcessOnPath1065" class="cls-28" d="M1022.87,289.14h-7.65V223.39h-7.43L1019,212.14l11.25,11.25h-7.42Z"/></g><g id="ProcessOnG1064-13" data-name="ProcessOnG1064"><path id="ProcessOnPath1065-13" data-name="ProcessOnPath1065" class="cls-28" d="M1022.87,426.86h-7.65V375.11h-7.43L1019,363.86l11.25,11.25h-7.42Z"/></g><g id="ProcessOnG1064-14" data-name="ProcessOnG1064"><path id="ProcessOnPath1065-14" data-name="ProcessOnPath1065" class="cls-28" d="M1074.73,119.06v-7.65h80.75V104l11.25,11.25-11.25,11.25v-7.43Z"/></g><g id="ProcessOnG1064-15" data-name="ProcessOnG1064"><path id="ProcessOnPath1065-15" data-name="ProcessOnPath1065" class="cls-28" d="M816.3,194.37v-7.65H933.05V179.3l11.25,11.25L933.05,201.8v-7.43Z"/></g><polygon class="cls-29" points="276.46 141.68 278.76 137.2 286.49 150.59 278.76 163.97 276.46 159.75 281.68 150.71 276.46 141.68"/><polygon class="cls-30" points="278.83 137.2 263.37 137.2 255.64 150.59 260.88 150.71 266.1 141.68 276.53 141.68 278.83 137.2"/><polygon class="cls-31" points="255.8 150.39 261.04 150.52 266.25 159.55 276.69 159.55 278.99 163.78 263.53 163.78 255.8 150.39"/></svg>