<svg xmlns="http://www.w3.org/2000/svg" xmlns:xlink="http://www.w3.org/1999/xlink" viewBox="0 0 1024.21 389.5"><defs><style>.cls-1,.cls-16,.cls-2,.cls-3,.cls-31,.cls-4,.cls-5,.cls-6,.cls-7,.cls-8{fill:none;}.cls-1,.cls-11,.cls-12,.cls-13,.cls-16{stroke:#8aacda;}.cls-1,.cls-11,.cls-12,.cls-13,.cls-16,.cls-2,.cls-3,.cls-4,.cls-5,.cls-6,.cls-7,.cls-8{stroke-linecap:round;stroke-linejoin:round;}.cls-1{opacity:0.2;}.cls-2{stroke:#709cd2;stroke-width:6px;opacity:0.25;}.cls-3{stroke:#5e93cd;stroke-width:5px;opacity:0.3;}.cls-4{stroke:#0073bc;stroke-width:4px;}.cls-5{stroke:#3081c4;stroke-width:3.25px;}.cls-6{stroke:#578fcb;stroke-width:2.5px;}.cls-7{stroke:#7ea4d6;stroke-width:1.65px;}.cls-8{stroke:#a9c0e4;stroke-width:0.65px;}.cls-9{font-size:21px;}.cls-10,.cls-14,.cls-30,.cls-9{font-family:AdobeSongStd-Light-GBpc-EUC-H, Adobe Song Std;}.cls-10{font-size:24px;}.cls-11,.cls-12,.cls-13{stroke-opacity:0.2;}.cls-11{fill:url(#未命名的渐变_26);}.cls-12{fill:url(#未命名的渐变_26-2);}.cls-13{fill:url(#未命名的渐变_26-3);}.cls-14{font-size:15.37px;}.cls-15{fill:url(#天空);}.cls-16{stroke-width:0.25px;}.cls-17{fill:url(#天空-2);}.cls-18{fill:url(#未命名的渐变_8);}.cls-19{fill:url(#未命名的渐变_15);}.cls-20{fill:url(#未命名的渐变_19);}.cls-21{fill:url(#未命名的渐变_35);}.cls-22{fill:url(#未命名的渐变_43);}.cls-23{fill:url(#未命名的渐变_46);}.cls-24{fill:url(#未命名的渐变_50);}.cls-25{fill:url(#未命名的渐变_50-2);}.cls-26{fill:url(#未命名的渐变_50-3);}.cls-27{fill:url(#未命名的渐变_12);}.cls-28{fill:url(#未命名的渐变_12-2);}.cls-29{letter-spacing:1.51em;}.cls-30{font-size:34.52px;fill:#0071bc;}.cls-31{stroke-miterlimit:10;stroke-width:2px;stroke:url(#未命名的渐变_11);}.cls-32{fill:url(#未命名的渐变_12-3);}.cls-33{fill:url(#未命名的渐变_77);}.cls-34{fill:url(#未命名的渐变_12-4);}.cls-35{fill:url(#未命名的渐变_12-5);}.cls-36{fill:url(#未命名的渐变_12-6);}.cls-37{fill:url(#未命名的渐变_12-7);}.cls-38{fill:url(#未命名的渐变_12-8);}</style><linearGradient id="未命名的渐变_26" x1="647.91" y1="326.58" x2="658.91" y2="326.58" gradientTransform="translate(-6.98 -7.29) rotate(0.12)" gradientUnits="userSpaceOnUse"><stop offset="0" stop-color="#cce0f4"/><stop offset="0" stop-color="#c6def3"/><stop offset="0" stop-color="#bbdaf1"/><stop offset="0" stop-color="#9fcfed"/><stop offset="0" stop-color="#71bde5"/><stop offset="0" stop-color="#32a4da"/><stop offset="0" stop-color="#1e9cd7"/><stop offset="0.71" stop-color="#0075be"/><stop offset="0.99" stop-color="#005b97"/></linearGradient><linearGradient id="未命名的渐变_26-2" x1="664.41" y1="327.08" x2="675.41" y2="327.08" xlink:href="#未命名的渐变_26"/><linearGradient id="未命名的渐变_26-3" x1="680.41" y1="327.08" x2="691.41" y2="327.08" xlink:href="#未命名的渐变_26"/><linearGradient id="天空" x1="784.38" y1="119.41" x2="892.5" y2="119.41" gradientUnits="userSpaceOnUse"><stop offset="0" stop-color="#cce0f4"/><stop offset="0.06" stop-color="#c3dcf2"/><stop offset="0.17" stop-color="#a9d2ee"/><stop offset="0.31" stop-color="#80c2e7"/><stop offset="0.46" stop-color="#47acde"/><stop offset="0.57" stop-color="#1e9cd7"/><stop offset="0.87" stop-color="#0075be"/><stop offset="0.99" stop-color="#005b97"/></linearGradient><linearGradient id="天空-2" x1="784.38" y1="163.45" y2="163.45" xlink:href="#天空"/><linearGradient id="未命名的渐变_8" x1="784.38" y1="163.45" x2="892.5" y2="163.45" gradientUnits="userSpaceOnUse"><stop offset="0" stop-color="#cce0f4"/><stop offset="0.1" stop-color="#c3daf0"/><stop offset="0.27" stop-color="#a9c9e4"/><stop offset="0.48" stop-color="#80aed1"/><stop offset="0.73" stop-color="#4689b7"/><stop offset="0.99" stop-color="#005b97"/><stop offset="1" stop-color="#1e9cd7"/><stop offset="1" stop-color="#1c99d5"/><stop offset="1" stop-color="#0075be"/><stop offset="1" stop-color="#0073bb"/></linearGradient><linearGradient id="未命名的渐变_15" x1="368" y1="199.06" x2="408" y2="199.06" gradientTransform="translate(653.5 -318.5) rotate(90)" gradientUnits="userSpaceOnUse"><stop offset="0" stop-color="#cce0f4"/><stop offset="0" stop-color="#c3dcf2"/><stop offset="0" stop-color="#a9d2ee"/><stop offset="0" stop-color="#80c2e7"/><stop offset="0" stop-color="#47acde"/><stop offset="0" stop-color="#1e9cd7"/><stop offset="0.71" stop-color="#0075be"/><stop offset="0.99" stop-color="#005b97"/></linearGradient><linearGradient id="未命名的渐变_19" x1="368" y1="125.06" x2="408" y2="125.06" xlink:href="#未命名的渐变_15"/><linearGradient id="未命名的渐变_35" x1="742" y1="162.5" x2="789" y2="162.5" gradientTransform="translate(-6.98 -7.29) rotate(0.12)" xlink:href="#未命名的渐变_15"/><linearGradient id="未命名的渐变_43" x1="903.99" y1="160.65" x2="950.99" y2="160.65" gradientTransform="translate(-6.98 -7.29) rotate(0.12)" xlink:href="#未命名的渐变_15"/><linearGradient id="未命名的渐变_46" x1="917.92" y1="261.41" x2="964.92" y2="261.41" gradientTransform="translate(574.6 1172.91) rotate(-89.88)" xlink:href="#未命名的渐变_15"/><linearGradient id="未命名的渐变_50" x1="713.91" y1="241.08" x2="729.91" y2="241.08" gradientTransform="translate(0.02 -0.3)" gradientUnits="userSpaceOnUse"><stop offset="0" stop-color="#cce0f4"/><stop offset="0" stop-color="#c3dcf2"/><stop offset="0" stop-color="#a9d2ee"/><stop offset="0" stop-color="#80c2e7"/><stop offset="0" stop-color="#47abdd"/><stop offset="0" stop-color="#39a6db"/><stop offset="0.69" stop-color="#28a0d8"/><stop offset="1" stop-color="#1e9cd7"/><stop offset="1" stop-color="#0075be"/></linearGradient><linearGradient id="未命名的渐变_50-2" x1="712.91" y1="292.08" x2="728.91" y2="292.08" gradientTransform="translate(-0.08 -0.3)" xlink:href="#未命名的渐变_50"/><linearGradient id="未命名的渐变_50-3" x1="713.91" y1="364.08" x2="729.91" y2="364.08" gradientTransform="translate(-0.23 -0.3)" xlink:href="#未命名的渐变_50"/><linearGradient id="未命名的渐变_12" x1="655" y1="323.06" x2="695" y2="323.06" gradientTransform="translate(129.38 923.5) rotate(-90)" xlink:href="#未命名的渐变_15"/><linearGradient id="未命名的渐变_12-2" x1="655" y1="400.06" x2="695" y2="400.06" gradientTransform="translate(129.38 923.5) rotate(-90)" xlink:href="#未命名的渐变_15"/><linearGradient id="未命名的渐变_11" y1="313.75" x2="355.5" y2="313.75" gradientUnits="userSpaceOnUse"><stop offset="0" stop-color="#cce0f4"/><stop offset="0" stop-color="#c3dcf2"/><stop offset="0" stop-color="#a9d2ee"/><stop offset="0" stop-color="#80c2e7"/><stop offset="0" stop-color="#47acde"/><stop offset="0" stop-color="#1e9cd7"/><stop offset="0.87" stop-color="#0075be"/><stop offset="0.99" stop-color="#005b97"/></linearGradient><linearGradient id="未命名的渐变_12-3" x1="167.5" y1="165" x2="214.5" y2="165" gradientTransform="matrix(1, 0, 0, 1, 0, 0)" xlink:href="#未命名的渐变_15"/><linearGradient id="未命名的渐变_77" x1="729" y1="302.69" x2="737.99" y2="302.69" gradientTransform="translate(-0.1 -0.28)" gradientUnits="userSpaceOnUse"><stop offset="0" stop-color="#cce0f4"/><stop offset="0" stop-color="#c3dcf2"/><stop offset="0" stop-color="#a9d2ee"/><stop offset="0" stop-color="#80c2e7"/><stop offset="0" stop-color="#47abdd"/><stop offset="0" stop-color="#39a6db"/><stop offset="0.19" stop-color="#28a0d8"/><stop offset="0.28" stop-color="#1e9cd7"/><stop offset="0.74" stop-color="#1d9ad6"/><stop offset="1" stop-color="#1d9ad6"/></linearGradient><linearGradient id="未命名的渐变_12-4" x1="737.99" y1="293.7" x2="784.91" y2="293.7" gradientTransform="translate(-6.98 -7.29) rotate(0.12)" xlink:href="#未命名的渐变_15"/><linearGradient id="未命名的渐变_12-5" x1="372.29" y1="159.13" x2="419.29" y2="159.13" gradientTransform="translate(-37.9 174.8) rotate(-26.99)" xlink:href="#未命名的渐变_15"/><linearGradient id="未命名的渐变_12-6" x1="194.82" y1="372.33" x2="241.82" y2="372.33" gradientTransform="matrix(0.95, 0.31, -0.31, 0.95, 297.53, -234.6)" xlink:href="#未命名的渐变_15"/><linearGradient id="未命名的渐变_12-7" x1="536.33" y1="293.16" x2="583.33" y2="293.16" gradientTransform="translate(-35.18 122.95) rotate(-22.28)" xlink:href="#未命名的渐变_15"/><linearGradient id="未命名的渐变_12-8" x1="339.41" y1="679.91" x2="386.41" y2="679.91" gradientTransform="matrix(0.88, 0.48, 0.48, -0.88, -49.36, 560.66)" xlink:href="#未命名的渐变_15"/></defs><title>综合模型流程图5.2</title><g id="图层_1" data-name="图层 1"><rect class="cls-1" x="25.5" y="137.5" width="136" height="58" rx="12" ry="12"/><rect class="cls-2" x="25.5" y="137.5" width="136" height="58" rx="12" ry="12"/><rect class="cls-3" x="25.5" y="137.5" width="136" height="58" rx="12" ry="12"/><rect class="cls-4" x="25.5" y="137.5" width="136" height="58" rx="12" ry="12"/><rect class="cls-5" x="25.5" y="137.5" width="136" height="58" rx="12" ry="12"/><rect class="cls-6" x="25.5" y="137.5" width="136" height="58" rx="12" ry="12"/><rect class="cls-7" x="25.5" y="137.5" width="136" height="58" rx="12" ry="12"/><rect class="cls-8" x="25.5" y="137.5" width="136" height="58" rx="12" ry="12"/><text class="cls-9" transform="translate(30.56 174.64)">地质背景研究</text><text class="cls-9" transform="translate(225.54 173.3)">灾害发育特征</text><text class="cls-9" transform="translate(396.1 29.61)">历史雨量</text><text class="cls-9" transform="translate(511.1 30.16) scale(1.11 1)">基准值</text><text class="cls-10" transform="translate(443.59 133.1)">降雨研究</text><text class="cls-10" transform="translate(442.09 202.6)">变形研究</text><text class="cls-9" transform="translate(635.22 161.53) rotate(0.12)">阈值权重</text><text class="cls-9" transform="translate(786.71 86.89) rotate(0.12)">综合预警模型</text><text class="cls-9" transform="translate(966.22 161.34) rotate(0.12)">等级</text><text class="cls-9" transform="translate(787.38 292.91) rotate(0.12)">数据预处理</text><text class="cls-9" transform="translate(642.5 242.12) rotate(0.12)">雨量</text><text class="cls-9" transform="translate(642.9 289.11) rotate(0.12)">位移</text><text class="cls-9" transform="translate(630.75 367.08) rotate(0.12)">土压力</text><text class="cls-9" transform="translate(393.6 300.09)">最大变形</text><text class="cls-9" transform="translate(513.09 300.09)">切线角</text><rect class="cls-1" x="222" y="136" width="134" height="58" rx="12" ry="12"/><rect class="cls-2" x="222" y="136" width="134" height="58" rx="12" ry="12"/><rect class="cls-3" x="222" y="136" width="134" height="58" rx="12" ry="12"/><rect class="cls-4" x="222" y="136" width="134" height="58" rx="12" ry="12"/><rect class="cls-5" x="222" y="136" width="134" height="58" rx="12" ry="12"/><rect class="cls-6" x="222" y="136" width="134" height="58" rx="12" ry="12"/><rect class="cls-7" x="222" y="136" width="134" height="58" rx="12" ry="12"/><rect class="cls-8" x="222" y="136" width="134" height="58" rx="12" ry="12"/><rect class="cls-1" x="387.33" y="3" width="99.67" height="41" rx="12" ry="12"/><rect class="cls-2" x="387.33" y="3" width="99.67" height="41" rx="12" ry="12"/><rect class="cls-3" x="387.33" y="3" width="99.67" height="41" rx="12" ry="12"/><rect class="cls-4" x="387.33" y="3" width="99.67" height="41" rx="12" ry="12"/><rect class="cls-5" x="387.33" y="3" width="99.67" height="41" rx="12" ry="12"/><rect class="cls-6" x="387.33" y="3" width="99.67" height="41" rx="12" ry="12"/><rect class="cls-7" x="387.33" y="3" width="99.67" height="41" rx="12" ry="12"/><rect class="cls-8" x="387.33" y="3" width="99.67" height="41" rx="12" ry="12"/><rect class="cls-1" x="419" y="96" width="141" height="58" rx="12" ry="12"/><rect class="cls-2" x="419" y="96" width="141" height="58" rx="12" ry="12"/><rect class="cls-3" x="419" y="96" width="141" height="58" rx="12" ry="12"/><rect class="cls-4" x="419" y="96" width="141" height="58" rx="12" ry="12"/><rect class="cls-5" x="419" y="96" width="141" height="58" rx="12" ry="12"/><rect class="cls-6" x="419" y="96" width="141" height="58" rx="12" ry="12"/><rect class="cls-7" x="419" y="96" width="141" height="58" rx="12" ry="12"/><rect class="cls-8" x="419" y="96" width="141" height="58" rx="12" ry="12"/><rect class="cls-1" x="419" y="165" width="141" height="58" rx="12" ry="12"/><rect class="cls-2" x="419" y="165" width="141" height="58" rx="12" ry="12"/><rect class="cls-3" x="419" y="165" width="141" height="58" rx="12" ry="12"/><rect class="cls-4" x="419" y="165" width="141" height="58" rx="12" ry="12"/><rect class="cls-5" x="419" y="165" width="141" height="58" rx="12" ry="12"/><rect class="cls-6" x="419" y="165" width="141" height="58" rx="12" ry="12"/><rect class="cls-7" x="419" y="165" width="141" height="58" rx="12" ry="12"/><rect class="cls-8" x="419" y="165" width="141" height="58" rx="12" ry="12"/><rect class="cls-1" x="661.56" y="109.99" width="47" height="99.26" rx="12" ry="12" transform="translate(516.53 838.85) rotate(-89.88)"/><rect class="cls-2" x="661.56" y="109.99" width="47" height="99.26" rx="12" ry="12" transform="translate(516.53 838.85) rotate(-89.88)"/><rect class="cls-3" x="661.56" y="109.99" width="47" height="99.26" rx="12" ry="12" transform="translate(516.53 838.85) rotate(-89.88)"/><rect class="cls-4" x="661.56" y="109.99" width="47" height="99.26" rx="12" ry="12" transform="translate(516.53 838.85) rotate(-89.88)"/><rect class="cls-5" x="661.56" y="109.99" width="47" height="99.26" rx="12" ry="12" transform="translate(516.53 838.85) rotate(-89.88)"/><rect class="cls-6" x="661.56" y="109.99" width="47" height="99.26" rx="12" ry="12" transform="translate(516.53 838.85) rotate(-89.88)"/><rect class="cls-7" x="661.56" y="109.99" width="47" height="99.26" rx="12" ry="12" transform="translate(516.53 838.85) rotate(-89.88)"/><rect class="cls-8" x="661.56" y="109.99" width="47" height="99.26" rx="12" ry="12" transform="translate(516.53 838.85) rotate(-89.88)"/><rect class="cls-1" x="970.05" y="124.28" width="47" height="70.26" rx="12" ry="12" transform="matrix(0, -1, 1, 0, 824.6, 1147.13)"/><rect class="cls-2" x="970.05" y="124.28" width="47" height="70.26" rx="12" ry="12" transform="matrix(0, -1, 1, 0, 824.6, 1147.13)"/><rect class="cls-3" x="970.05" y="124.28" width="47" height="70.26" rx="12" ry="12" transform="matrix(0, -1, 1, 0, 824.6, 1147.13)"/><rect class="cls-4" x="970.05" y="124.28" width="47" height="70.26" rx="12" ry="12" transform="matrix(0, -1, 1, 0, 824.6, 1147.13)"/><rect class="cls-5" x="970.05" y="124.28" width="47" height="70.26" rx="12" ry="12" transform="matrix(0, -1, 1, 0, 824.6, 1147.13)"/><rect class="cls-6" x="970.05" y="124.28" width="47" height="70.26" rx="12" ry="12" transform="matrix(0, -1, 1, 0, 824.6, 1147.13)"/><rect class="cls-7" x="970.05" y="124.28" width="47" height="70.26" rx="12" ry="12" transform="matrix(0, -1, 1, 0, 824.6, 1147.13)"/><rect class="cls-8" x="970.05" y="124.28" width="47" height="70.26" rx="12" ry="12" transform="matrix(0, -1, 1, 0, 824.6, 1147.13)"/><rect class="cls-1" x="823.7" y="234.91" width="47" height="114.26" rx="12" ry="12" transform="translate(545.92 1133.13) rotate(-89.88)"/><rect class="cls-2" x="823.7" y="234.91" width="47" height="114.26" rx="12" ry="12" transform="translate(545.92 1133.13) rotate(-89.88)"/><rect class="cls-3" x="823.7" y="234.91" width="47" height="114.26" rx="12" ry="12" transform="translate(545.92 1133.13) rotate(-89.88)"/><rect class="cls-4" x="823.7" y="234.91" width="47" height="114.26" rx="12" ry="12" transform="translate(545.92 1133.13) rotate(-89.88)"/><rect class="cls-5" x="823.7" y="234.91" width="47" height="114.26" rx="12" ry="12" transform="translate(545.92 1133.13) rotate(-89.88)"/><rect class="cls-6" x="823.7" y="234.91" width="47" height="114.26" rx="12" ry="12" transform="translate(545.92 1133.13) rotate(-89.88)"/><rect class="cls-7" x="823.7" y="234.91" width="47" height="114.26" rx="12" ry="12" transform="translate(545.92 1133.13) rotate(-89.88)"/><rect class="cls-8" x="823.7" y="234.91" width="47" height="114.26" rx="12" ry="12" transform="translate(545.92 1133.13) rotate(-89.88)"/><rect class="cls-1" x="651.8" y="203.54" width="37" height="74.26" rx="12" ry="12" transform="translate(420.75 904.98) rotate(-89.88)"/><rect class="cls-2" x="651.8" y="203.54" width="37" height="74.26" rx="12" ry="12" transform="translate(420.75 904.98) rotate(-89.88)"/><rect class="cls-3" x="651.8" y="203.54" width="37" height="74.26" rx="12" ry="12" transform="translate(420.75 904.98) rotate(-89.88)"/><rect class="cls-4" x="651.8" y="203.54" width="37" height="74.26" rx="12" ry="12" transform="translate(420.75 904.98) rotate(-89.88)"/><rect class="cls-5" x="651.8" y="203.54" width="37" height="74.26" rx="12" ry="12" transform="translate(420.75 904.98) rotate(-89.88)"/><rect class="cls-6" x="651.8" y="203.54" width="37" height="74.26" rx="12" ry="12" transform="translate(420.75 904.98) rotate(-89.88)"/><rect class="cls-7" x="651.8" y="203.54" width="37" height="74.26" rx="12" ry="12" transform="translate(420.75 904.98) rotate(-89.88)"/><rect class="cls-8" x="651.8" y="203.54" width="37" height="74.26" rx="12" ry="12" transform="translate(420.75 904.98) rotate(-89.88)"/><rect class="cls-1" x="651.7" y="250.54" width="37" height="74.26" rx="12" ry="12" transform="translate(373.66 951.78) rotate(-89.88)"/><rect class="cls-2" x="651.7" y="250.54" width="37" height="74.26" rx="12" ry="12" transform="translate(373.66 951.78) rotate(-89.88)"/><rect class="cls-3" x="651.7" y="250.54" width="37" height="74.26" rx="12" ry="12" transform="translate(373.66 951.78) rotate(-89.88)"/><rect class="cls-4" x="651.7" y="250.54" width="37" height="74.26" rx="12" ry="12" transform="translate(373.66 951.78) rotate(-89.88)"/><rect class="cls-5" x="651.7" y="250.54" width="37" height="74.26" rx="12" ry="12" transform="translate(373.66 951.78) rotate(-89.88)"/><rect class="cls-6" x="651.7" y="250.54" width="37" height="74.26" rx="12" ry="12" transform="translate(373.66 951.78) rotate(-89.88)"/><rect class="cls-7" x="651.7" y="250.54" width="37" height="74.26" rx="12" ry="12" transform="translate(373.66 951.78) rotate(-89.88)"/><rect class="cls-8" x="651.7" y="250.54" width="37" height="74.26" rx="12" ry="12" transform="translate(373.66 951.78) rotate(-89.88)"/><rect class="cls-1" x="651.55" y="326.54" width="37" height="74.26" rx="12" ry="12" transform="matrix(0, -1, 1, 0, 297.5, 1027.47)"/><rect class="cls-2" x="651.55" y="326.54" width="37" height="74.26" rx="12" ry="12" transform="matrix(0, -1, 1, 0, 297.5, 1027.47)"/><rect class="cls-3" x="651.55" y="326.54" width="37" height="74.26" rx="12" ry="12" transform="matrix(0, -1, 1, 0, 297.5, 1027.47)"/><rect class="cls-4" x="651.55" y="326.54" width="37" height="74.26" rx="12" ry="12" transform="matrix(0, -1, 1, 0, 297.5, 1027.47)"/><rect class="cls-5" x="651.55" y="326.54" width="37" height="74.26" rx="12" ry="12" transform="matrix(0, -1, 1, 0, 297.5, 1027.47)"/><rect class="cls-6" x="651.55" y="326.54" width="37" height="74.26" rx="12" ry="12" transform="matrix(0, -1, 1, 0, 297.5, 1027.47)"/><rect class="cls-7" x="651.55" y="326.54" width="37" height="74.26" rx="12" ry="12" transform="matrix(0, -1, 1, 0, 297.5, 1027.47)"/><rect class="cls-8" x="651.55" y="326.54" width="37" height="74.26" rx="12" ry="12" transform="matrix(0, -1, 1, 0, 297.5, 1027.47)"/><circle class="cls-11" cx="645.75" cy="320.64" r="5.5"/><circle class="cls-12" cx="662.25" cy="321.17" r="5.5"/><circle class="cls-13" cx="678.25" cy="321.2" r="5.5"/><text class="cls-14" transform="translate(565.69 154.96) rotate(-0.55)">数值<tspan x="0" y="18.44">模拟</tspan></text><rect class="cls-1" x="495.33" y="3" width="99.67" height="41" rx="12" ry="12"/><rect class="cls-2" x="495.33" y="3" width="99.67" height="41" rx="12" ry="12"/><rect class="cls-3" x="495.33" y="3" width="99.67" height="41" rx="12" ry="12"/><rect class="cls-4" x="495.33" y="3" width="99.67" height="41" rx="12" ry="12"/><rect class="cls-5" x="495.33" y="3" width="99.67" height="41" rx="12" ry="12"/><rect class="cls-6" x="495.33" y="3" width="99.67" height="41" rx="12" ry="12"/><rect class="cls-7" x="495.33" y="3" width="99.67" height="41" rx="12" ry="12"/><rect class="cls-8" x="495.33" y="3" width="99.67" height="41" rx="12" ry="12"/><rect class="cls-1" x="386.33" y="273" width="99.67" height="41" rx="12" ry="12"/><rect class="cls-2" x="386.33" y="273" width="99.67" height="41" rx="12" ry="12"/><rect class="cls-3" x="386.33" y="273" width="99.67" height="41" rx="12" ry="12"/><rect class="cls-4" x="386.33" y="273" width="99.67" height="41" rx="12" ry="12"/><rect class="cls-5" x="386.33" y="273" width="99.67" height="41" rx="12" ry="12"/><rect class="cls-6" x="386.33" y="273" width="99.67" height="41" rx="12" ry="12"/><rect class="cls-7" x="386.33" y="273" width="99.67" height="41" rx="12" ry="12"/><rect class="cls-8" x="386.33" y="273" width="99.67" height="41" rx="12" ry="12"/><rect class="cls-1" x="494.33" y="273" width="99.67" height="41" rx="12" ry="12"/><rect class="cls-2" x="494.33" y="273" width="99.67" height="41" rx="12" ry="12"/><rect class="cls-3" x="494.33" y="273" width="99.67" height="41" rx="12" ry="12"/><rect class="cls-4" x="494.33" y="273" width="99.67" height="41" rx="12" ry="12"/><rect class="cls-5" x="494.33" y="273" width="99.67" height="41" rx="12" ry="12"/><rect class="cls-6" x="494.33" y="273" width="99.67" height="41" rx="12" ry="12"/><rect class="cls-7" x="494.33" y="273" width="99.67" height="41" rx="12" ry="12"/><rect class="cls-8" x="494.33" y="273" width="99.67" height="41" rx="12" ry="12"/><polygon class="cls-15" points="886.24 119.41 838.44 145.18 790.65 119.41 838.44 93.63 886.24 119.41"/><polygon class="cls-16" points="790.65 119.41 838.44 145.18 886.24 119.41 838.44 93.63 790.65 119.41"/><polygon class="cls-17" points="888.49 122.66 888.49 178.22 840.44 204.24 840.44 148.69 888.49 122.66"/><polygon class="cls-16" points="888.49 178.22 888.49 122.66 840.44 148.69 840.44 204.24 888.49 178.22"/><polygon class="cls-18" points="836.44 148.69 836.44 204.24 788.39 178.22 788.39 122.66 836.44 148.69"/><polygon class="cls-16" points="788.39 178.22 836.44 204.24 836.44 148.69 788.39 122.66 788.39 178.22"/></g><g id="图层_2" data-name="图层 2"><polygon class="cls-19" points="460.02 49.5 448.82 49.5 448.78 78.41 444.64 78.41 454.42 89.5 464.24 78.41 460.06 78.41 460.02 49.5"/><polygon class="cls-20" points="534.02 49.5 522.82 49.5 522.78 78.41 518.64 78.41 528.42 89.5 538.24 78.41 534.06 78.41 534.02 49.5"/><polygon class="cls-21" points="734.69 151.32 734.67 162.19 768.64 162.29 768.63 166.31 781.68 156.85 768.67 147.31 768.66 151.36 734.69 151.32"/><polygon class="cls-22" points="896.69 149.81 896.67 160.68 930.64 160.78 930.63 164.79 943.68 155.34 930.67 145.79 930.66 149.84 896.69 149.81"/><polygon class="cls-23" points="832.47 255.52 843.34 255.54 843.45 221.58 847.46 221.58 838 208.53 828.46 221.54 832.51 221.55 832.47 255.52"/><rect class="cls-24" x="713.93" y="236.78" width="16" height="8" transform="translate(-7 -6.98) rotate(0.12)"/><rect class="cls-25" x="712.82" y="287.78" width="16" height="8" transform="translate(-6.9 -6.98) rotate(0.12)"/><rect class="cls-26" x="713.68" y="359.78" width="16" height="8" transform="translate(-6.75 -6.98) rotate(0.12)"/><polygon class="cls-27" points="446.85 268.5 458.06 268.5 458.1 239.59 462.24 239.59 452.46 228.5 442.64 239.59 446.82 239.59 446.85 268.5"/><polygon class="cls-28" points="523.85 268.5 535.06 268.5 535.1 239.59 539.24 239.59 529.46 228.5 519.64 239.59 523.82 239.59 523.85 268.5"/><text class="cls-9" transform="translate(9.5 276.5)"><tspan class="cls-29">	</tspan><tspan x="36" y="0">本模型利用综合指数法进行地质</tspan><tspan x="0" y="25.2">灾害综合监测预警分析，以层次分析</tspan><tspan x="0" y="50.4">法（AHP）确定各指标权重，建立多</tspan><tspan x="0" y="75.6">判据条件下的综合预警模型，对灾害</tspan><tspan x="0" y="100.8">预警等级进行综合评估。</tspan></text><text class="cls-30" transform="translate(44.39 43.88)">综合模型处理流程</text><rect class="cls-31" x="1" y="239" width="353.5" height="149.5"/><polygon class="cls-32" points="167.5 159.58 167.5 170.45 201.47 170.49 201.47 174.5 214.5 165.02 201.47 155.5 201.47 159.55 167.5 159.58"/><rect class="cls-33" x="728.9" y="237.02" width="8.98" height="130.78" transform="translate(-6.88 -7.01) rotate(0.12)"/><polygon class="cls-34" points="730.41 282.53 730.39 293.38 764.3 293.48 764.29 297.49 777.32 288.05 764.33 278.52 764.32 282.56 730.41 282.53"/><polygon class="cls-35" points="363.6 142.84 368.53 152.52 398.82 137.14 400.64 140.72 407.95 126.35 392.02 123.78 393.85 127.39 363.6 142.84"/><polygon class="cls-36" points="369.33 174.58 365.97 184.92 398.26 195.46 397.02 199.27 412.34 194.28 402.89 181.2 401.64 185.05 369.33 174.58"/><polygon class="cls-37" points="570.2 185.9 574.32 195.95 605.76 183.11 607.29 186.82 615.75 173.11 600.08 169.24 601.62 172.99 570.2 185.9"/><polygon class="cls-38" points="570.76 129.85 575.95 120.3 605.82 136.48 607.73 132.95 614.66 147.5 598.66 149.65 600.6 146.09 570.76 129.85"/></g></svg>