<?xml version="1.0" encoding="UTF-8"?>
<svg width="32px" height="32px" viewBox="0 0 32 32" version="1.1" xmlns="http://www.w3.org/2000/svg" xmlns:xlink="http://www.w3.org/1999/xlink">
    <title>icon-logo</title>
    <g id="页面-1" stroke="none" stroke-width="1" fill="none" fill-rule="evenodd">
        <g id="V2X首页-2" transform="translate(-986.000000, -103.000000)" fill-rule="nonzero">
            <g id="icon-logo" transform="translate(986.000000, 103.000000)">
                <rect id="矩形" x="0" y="0" width="32" height="32"></rect>
                <g id="编组" transform="translate(8.000000, 4.000000)" stroke="#EEEEEE" stroke-linecap="round" stroke-linejoin="round" stroke-width="4">
                    <path d="M14.2286946,14.131728 L6.2286946,14.131728 C4.57184035,14.131728 3.2286946,12.9804602 3.2286946,11.5602994 L3.2286946,4.70315656 C3.2286946,3.28299577 4.57184035,2.13172798 6.2286946,2.13172798 L14.2286946,2.13172798" id="路径" transform="translate(8.728695, 8.131728) rotate(-315.000000) translate(-8.728695, -8.131728) "></path>
                    <path d="M13.631728,22.0207333 L5.63172798,22.0207333 C3.97487373,22.0207333 2.63172798,20.8694655 2.63172798,19.4493047 L2.63172798,12.5921618 C2.63172798,11.1720011 3.97487373,10.0207333 5.63172798,10.0207333 L13.631728,10.0207333" id="路径备份" transform="translate(8.131728, 16.020733) rotate(-135.000000) translate(-8.131728, -16.020733) "></path>
                </g>
            </g>
        </g>
    </g>
</svg>