<?xml version="1.0" encoding="UTF-8"?>
<svg width="16px" height="16px" viewBox="0 0 16 16" version="1.1" xmlns="http://www.w3.org/2000/svg" xmlns:xlink="http://www.w3.org/1999/xlink">
    <title>success</title>
    <g id="页面-1" stroke="none" stroke-width="1" fill="none" fill-rule="evenodd">
        <g id="V2X首页-2" transform="translate(-1631.000000, -1001.000000)" fill="#A0D911">
            <g id="success" transform="translate(1631.000000, 1001.000000)">
                <path d="M8,0 C10.2619048,0.0595238095 12.1458333,0.842261905 13.6517857,2.34821429 C15.1577381,3.85416667 15.9404762,5.73809524 16,8 C15.9404762,10.2619048 15.1577381,12.1458333 13.6517857,13.6517857 C12.1458333,15.1577381 10.2619048,15.9404762 8,16 C5.73809524,15.9404762 3.85416667,15.1577381 2.34821429,13.6517857 C0.842261905,12.1458333 0.0595238095,10.2619048 0,8 C0.0595238095,5.73809524 0.842261905,3.85416667 2.34821429,2.34821429 C3.85416667,0.842261905 5.73809524,0.0595238095 8,0 Z M7,9.57142857 L5.23214286,7.80357143 C5.08928571,7.67261905 4.92559524,7.60714286 4.74107143,7.60714286 C4.55654762,7.60714286 4.39583333,7.67559524 4.25892857,7.8125 C4.12202381,7.94940476 4.05357143,8.10714286 4.05357143,8.28571429 C4.05357143,8.46428571 4.11904762,8.625 4.25,8.76785714 L6.51785714,11.0357143 C6.64880952,11.1666667 6.80952381,11.2321429 7,11.2321429 C7.19047619,11.2321429 7.35119048,11.1666667 7.48214286,11.0357143 L12.1785714,6.33928571 C12.3571429,6.16071429 12.4136905,5.94345238 12.3482143,5.6875 C12.2827381,5.43154762 12.1220238,5.27083333 11.8660714,5.20535714 C11.610119,5.13988095 11.3928571,5.19642857 11.2142857,5.375 L7,9.57142857 Z" id="形状"></path>
            </g>
        </g>
    </g>
</svg>