<?xml version="1.0" encoding="UTF-8"?>
<svg width="24px" height="24px" viewBox="0 0 24 24" version="1.1" xmlns="http://www.w3.org/2000/svg" xmlns:xlink="http://www.w3.org/1999/xlink">
    <title>律领英首页</title>
    <g id="页面-1" stroke="none" stroke-width="1" fill="none" fill-rule="evenodd">
        <g id="V2X首页-2" transform="translate(-36.000000, -108.000000)" fill-rule="nonzero">
            <g id="编组-9" transform="translate(0.000000, 90.000000)">
                <g id="律领英首页" transform="translate(36.000000, 18.000000)">
                    <rect id="矩形" fill="#000000" opacity="0" x="0" y="0" width="24" height="24"></rect>
                    <path d="M9.80390625,19.1671875 L5.7515625,19.1671875 C5.05546875,19.1671875 4.80234375,19.0945312 4.546875,18.9585937 C4.29140625,18.8226563 4.0921875,18.6234375 3.95625,18.3679687 C3.8203125,18.1125 3.74765625,17.8617187 3.74765625,17.1632812 L3.74765625,9.00703125 L11.953125,1.97578125 L20.1585937,9.009375 L20.1585937,17.165625 C20.1585937,17.8617188 20.0859375,18.1148438 19.95,18.3703125 C19.8140625,18.6257813 19.6148437,18.825 19.359375,18.9609375 C19.1039062,19.096875 18.853125,19.1695313 18.1546875,19.1695313 L14.1046875,19.1695313 L14.1046875,14.6976562 C14.1046875,14.3484375 14.0695312,14.221875 13.9992187,14.0953125 C13.93125,13.96875 13.8304687,13.8679687 13.7039062,13.8 C13.5773437,13.7320312 13.4507812,13.6945312 13.1015625,13.6945312 L10.8070312,13.6945312 C10.4578125,13.6945312 10.33125,13.7296875 10.2046875,13.8 C10.078125,13.8679687 9.97734375,13.96875 9.909375,14.0953125 C9.84140625,14.221875 9.80390625,14.3484375 9.80390625,14.6976562 L9.80390625,19.1671875 Z" id="路径" fill="#397CF5"></path>
                </g>
            </g>
        </g>
    </g>
</svg>