<?xml version="1.0" encoding="UTF-8"?>
<svg width="50px" height="50px" viewBox="0 0 50 50" version="1.1" xmlns="http://www.w3.org/2000/svg" xmlns:xlink="http://www.w3.org/1999/xlink">
    <title>加载</title>
    <g id="消防" stroke="none" stroke-width="1" fill="none" fill-rule="evenodd">
        <g id="首页-弹窗-加载中" transform="translate(-936.000000, -502.000000)" fill-rule="nonzero">
            <g id="编组-2" transform="translate(908.000000, 502.000000)">
                <g id="加载" transform="translate(28.000000, 0.000000)">
                    <rect id="矩形" fill="#CCCCCC" opacity="0" x="0" y="0" width="50" height="50"></rect>
                    <path d="M37.737301,10.8240496 C37.737301,12.2897387 38.9254767,13.4779144 40.3911658,13.4779144 C41.8568548,13.4779144 43.0450306,12.2897387 43.0450306,10.8240496 C43.0450306,9.35836056 41.8568548,8.17018481 40.3911658,8.17018481 C38.9254767,8.17018481 37.737301,9.35836056 37.737301,10.8240496 L37.737301,10.8240496 Z" id="路径" fill="#27E9FA"></path>
                    <path d="M42.6669115,25.166013 C42.6667686,26.3364139 43.2910879,27.4179701 44.304661,28.0032118 C45.3182341,28.5884535 46.5670489,28.5884535 47.580622,28.0032118 C48.5941951,27.4179701 49.2185145,26.3364139 49.2183716,25.166013 C49.2185145,23.9956122 48.5941951,22.914056 47.580622,22.3288143 C46.5670489,21.7435726 45.3182341,21.7435726 44.304661,22.3288143 C43.2910879,22.914056 42.6667686,23.9956122 42.6669115,25.166013 Z" id="路径" fill="#56E4F1"></path>
                    <path d="M36.6591928,39.5798503 C36.6591928,41.7095651 38.3856678,43.43604 40.5153826,43.43604 C42.6450974,43.43604 44.3715723,41.7095651 44.3715723,39.5798503 C44.3715723,38.2021663 43.6365868,36.9291339 42.4434775,36.2402919 C41.2503682,35.5514499 39.7803969,35.5514499 38.5872876,36.2402919 C37.3941784,36.9291339 36.6591928,38.2021663 36.6591928,39.5798503 L36.6591928,39.5798503 Z" id="路径" fill="#86F5FF"></path>
                    <path d="M21.6477086,45.3438228 C21.6475418,46.9398814 22.4989331,48.4147719 23.8811327,49.2128494 C25.2633322,50.0109269 26.9663205,50.0109269 28.34852,49.2128494 C29.7307196,48.4147719 30.5821109,46.9398814 30.581944,45.3438228 C30.5821109,43.7477641 29.7307196,42.2728736 28.34852,41.4747961 C26.9663205,40.6767186 25.2633322,40.6767186 23.8811327,41.4747961 C22.4989331,42.2728736 21.6475418,43.7477641 21.6477086,45.3438228 L21.6477086,45.3438228 Z" id="路径" fill="#ACF6FD"></path>
                    <path d="M6.92762612,39.3532914 C6.92762612,41.130939 7.87598982,42.7735532 9.41547786,43.6623771 C10.9549659,44.5512009 12.8516934,44.5512009 14.3911814,43.6623771 C15.9306695,42.7735532 16.8790332,41.130939 16.8790332,39.3532914 C16.8790332,36.6052862 14.6513348,34.3775878 11.9033296,34.3775878 C9.15532447,34.3775878 6.92762612,36.6052862 6.92762612,39.3532914 Z" id="路径" fill="#ACD6FD"></path>
                    <path d="M20.936001,5.26710522 C20.936001,8.17561564 23.2938145,10.5334292 26.202325,10.5334292 C29.1108354,10.5334292 31.4686489,8.17561564 31.4686489,5.26710522 C31.4686489,3.38562886 30.4648933,1.64707298 28.835487,0.706334786 C27.2060806,-0.23440341 25.1985693,-0.23440341 23.5691629,0.706334786 C21.9397566,1.64707298 20.936001,3.38562886 20.936001,5.26710522 Z" id="路径" fill="#1890FF"></path>
                    <path d="M6.63700566,10.9482665 C6.63700566,12.8297428 7.64076131,14.5682987 9.27016763,15.5090369 C10.8995739,16.4497751 12.9070853,16.4497751 14.5364916,15.5090369 C16.165898,14.5682987 17.1696536,12.8297428 17.1696536,10.9482665 C17.1696536,8.03975604 14.8118401,5.68194248 11.9033296,5.68194248 C8.99481922,5.68194248 6.63700566,8.03975604 6.63700566,10.9482665 L6.63700566,10.9482665 Z" id="路径" fill="#56ACFB"></path>
                    <path d="M1.30193276,25.0003906 C1.30193276,26.7931102 2.25833723,28.4496514 3.81087792,29.3460112 C5.36341861,30.242371 7.27622763,30.242371 8.82876832,29.3460112 C10.381309,28.4496514 11.3377135,26.7931102 11.3377135,25.0003906 C11.3377135,22.2290863 9.09112744,19.9825003 6.31982312,19.9825003 C3.5485188,19.9825003 1.30193276,22.2290863 1.30193276,25.0003906 L1.30193276,25.0003906 Z" id="路径" fill="#7FC1FE"></path>
                </g>
            </g>
        </g>
    </g>
</svg>