<?xml version="1.0" encoding="utf-8"?>
<!-- Generator: Adobe Illustrator 23.0.2, SVG Export Plug-In . SVG Version: 6.00 Build 0)  -->
<svg version="1.1" id="图层_1" xmlns="http://www.w3.org/2000/svg" xmlns:xlink="http://www.w3.org/1999/xlink" x="0px" y="0px"
	 viewBox="0 0 200 200" style="enable-background:new 0 0 200 200;" xml:space="preserve">
<path d="M166.16,22.71H33.51c-14.2,0-21.11,7.01-21.11,21.02v84.07c0,14.01,6.48,20.64,20.33,20.64h20.33l-2.5,21.4
	c0,2.59,1.43,4.96,3.72,6.16c1.02,0.55,2.16,0.84,3.32,0.84c1.36,0,2.73-0.39,3.9-1.18l40.37-27.23h65.07
	c14.08,0,20.33-6.62,20.33-20.64V43.73C187.27,29.71,180.23,22.71,166.16,22.71L166.16,22.71z M59.21,95.74
	c-5.6,0-10.15-4.55-10.15-10.13c0-5.58,4.55-10.15,10.15-10.15c5.6,0,10.15,4.55,10.15,10.15C69.36,91.2,64.79,95.74,59.21,95.74z
	 M99.81,95.74c-5.63,0-10.2-4.55-10.2-10.13c0-5.58,4.57-10.15,10.2-10.15c5.63,0,10.2,4.55,10.2,10.15
	C110.01,91.2,105.42,95.74,99.81,95.74L99.81,95.74z M140.48,95.74c-5.63,0-10.18-4.55-10.18-10.13c0-5.58,4.56-10.15,10.18-10.15
	c5.62,0,10.2,4.55,10.2,10.15C150.68,91.2,146.1,95.74,140.48,95.74L140.48,95.74z"/>
</svg>
